<svg width="69" height="88" viewBox="0 0 69 88" fill="none" xmlns="http://www.w3.org/2000/svg">
<g clip-path="url(#clip0_1958_16717)">
<path d="M43.5156 8.09252L43.5156 80.1712C43.5156 84.2258 46.7227 87.5127 50.6789 87.5127L60.9862 87.5127C64.9424 87.5127 68.1495 84.2258 68.1495 80.1712L68.1495 8.09252C68.1495 4.03791 64.9424 0.751006 60.9862 0.751006L50.6789 0.751007C46.7227 0.751007 43.5156 4.03791 43.5156 8.09252Z" fill="#F4F4F4"/>
<path d="M50.5366 5.09047C42.5337 7.54374 36.5137 17.8878 36.5137 30.264L36.5137 56.8655C36.5137 69.2418 42.5337 79.5675 50.5366 82.0391" fill="white"/>
<path d="M58.8072 5.09004L58.8072 82.4414L11.558 82.4414C5.39508 82.4414 0.411133 77.3152 0.411132 70.9989L0.41113 16.5142C0.41113 10.198 5.41294 5.09004 11.558 5.09004L58.8251 5.09004L58.8072 5.09004Z" fill="white"/>
<path d="M34.0662 77.7C31.6096 77.7 29.6182 79.741 29.6182 82.2587C29.6182 84.7764 31.6096 86.8174 34.0662 86.8174L54.4128 86.8174C56.8694 86.8174 58.8609 84.7764 58.8609 82.2587C58.8609 79.741 56.8694 77.7 54.4128 77.7L34.0662 77.7Z" fill="white"/>
<path d="M34.0662 0.53202C31.6096 0.53202 29.6182 2.57301 29.6182 5.09071C29.6182 7.60841 31.6096 9.64941 34.0662 9.64941L54.4128 9.64941C56.8694 9.64941 58.8609 7.60841 58.8609 5.09071C58.8609 2.57301 56.8694 0.532019 54.4128 0.532019L34.0662 0.53202Z" fill="white"/>
<path d="M50.5727 4.99868C42.5698 7.45196 36.5498 17.796 36.5498 30.1722L36.5498 56.7737C36.5498 69.15 42.5698 79.4757 50.5727 81.9473" stroke="#BDBDBD" stroke-width="0.460591" stroke-miterlimit="10"/>
<path d="M58.8612 4.99823L58.8612 82.3496L11.5942 82.3496C5.44907 82.3496 0.447265 77.2234 0.447265 70.9071L0.447263 16.4224C0.447262 10.1062 5.44907 4.99824 11.5941 4.99824L58.8612 4.99823Z" stroke="#BDBDBD" stroke-width="0.460591" stroke-miterlimit="10"/>
<path d="M34.1023 77.6082C31.6457 77.6082 29.6543 79.6492 29.6543 82.1669C29.6543 84.6846 31.6458 86.7256 34.1023 86.7256L54.449 86.7256C56.9056 86.7256 58.897 84.6846 58.897 82.1669C58.897 79.6492 56.9056 77.6082 54.449 77.6082L34.1023 77.6082Z" fill="white" stroke="#BDBDBD" stroke-width="0.460591" stroke-miterlimit="10"/>
<path d="M34.1023 0.440223C31.6457 0.440224 29.6543 2.48123 29.6543 4.99892C29.6543 7.51662 31.6458 9.55762 34.1023 9.55762L54.449 9.55762C56.9056 9.55762 58.897 7.51662 58.897 4.99892C58.897 2.48122 56.9056 0.440223 54.449 0.440223L34.1023 0.440223Z" fill="white" stroke="#BDBDBD" stroke-width="0.460591" stroke-miterlimit="10"/>
</g>
<defs>
<clipPath id="clip0_1958_16717">
<rect width="87.5123" height="68.1675" fill="white" transform="translate(0 87.5127) rotate(-90)"/>
</clipPath>
</defs>
</svg>
