<svg width="705" height="252" viewBox="0 0 705 252" fill="none" xmlns="http://www.w3.org/2000/svg">
<g clip-path="url(#clip0_3521_25816)">
<path d="M704.348 126.01C704.348 137.471 700.058 148.436 692.273 156.883C663 188.628 596.906 243.176 483.229 251.96C482.812 252 482.375 252 481.938 252L57.0572 252C55.9054 252 54.7932 251.881 53.7208 251.643C44.7441 249.68 -7.55789e-07 234.71 -5.21945e-06 132.593C-5.31392e-06 130.432 -5.41013e-06 128.231 0.0595739 126.01C0.0198542 123.769 -5.70048e-06 121.588 -5.79496e-06 119.427C-1.02595e-05 17.2904 44.7441 2.33975 53.7208 0.376729C54.7932 0.138787 55.9053 0.0198155 57.0572 0.0198154L481.938 0.0197968C482.375 0.0197968 482.812 0.0197944 483.229 0.0792798C596.906 8.84346 662.98 63.4114 692.253 95.1568C700.038 103.604 704.328 114.569 704.328 126.03L704.348 126.01Z" fill="#ED2F59"/>
<path d="M686.414 100.49C656.823 68.4079 592.696 16.4573 482.613 7.95092C482.395 7.95092 482.156 7.9311 481.938 7.9311L57.0572 7.93112C56.5012 7.93112 55.965 7.99059 55.4287 8.08973C48.6367 9.57687 6.11685 23.0008 8.00353 125.99C6.11686 228.979 48.6367 242.403 55.4288 243.91C55.965 244.029 56.5012 244.068 57.0573 244.068L481.938 244.068C482.156 244.068 482.395 244.068 482.613 244.049C592.696 235.542 656.823 183.591 686.414 151.509C699.721 137.074 699.721 114.925 686.414 100.49Z" fill="white"/>
<path d="M693.187 100.49C663.596 68.4079 599.468 16.4573 489.385 7.95092C489.167 7.95092 488.929 7.9311 488.71 7.9311L63.8294 7.93112C63.2733 7.93112 62.7371 7.99059 62.2009 8.08973C55.4088 9.57687 12.889 23.0008 14.7757 125.99C12.8691 228.979 55.389 242.403 62.2009 243.91C62.7371 244.029 63.2733 244.068 63.8294 244.068L488.71 244.068C488.929 244.068 489.167 244.068 489.385 244.049C599.468 235.542 663.596 183.591 693.187 151.509C706.493 137.074 706.493 114.925 693.187 100.49Z" fill="white"/>
<path d="M482.653 216.071C474.987 217.161 467.083 218.053 458.9 218.688C458.682 218.688 458.444 218.708 458.225 218.708L33.3446 218.708C32.7885 218.708 32.2523 218.648 31.7161 218.549C30.3457 218.252 27.5257 217.459 23.931 215.575C36.1647 238.417 51.5759 243.117 55.4287 243.969C55.9649 244.088 56.5011 244.128 57.0572 244.128L481.938 244.128C482.156 244.128 482.395 244.128 482.613 244.108C490.795 243.474 498.68 242.581 506.365 241.491C506.663 241.094 515.124 229.118 523.048 207.961C537.744 168.76 550.613 98.0317 506.346 10.6477C502.115 10.0528 497.846 9.49765 493.476 9.04159C542.947 130.927 483.407 215 482.633 216.09L482.653 216.071Z" fill="#F4F4F4"/>
<path opacity="0.1" d="M546.78 190.531C546.78 190.531 571.327 117.106 546.78 62.598C546.78 62.598 596.112 123.888 546.78 190.531Z" fill="#BDBDBD"/>
<path d="M506.346 241.432C601.99 227.909 659.008 181.213 686.394 151.51C699.701 137.074 699.701 114.926 686.394 100.491C659.008 70.7878 601.99 24.0918 506.326 10.5688C574.504 145.164 507.16 240.262 506.326 241.432L506.346 241.432Z" fill="#A8CF45"/>
<g opacity="0.1">
<path opacity="0.1" d="M675.412 94.5423C688.718 108.977 688.718 131.126 675.412 145.561C649.614 173.539 597.522 216.626 511.608 232.826C508.57 238.279 506.484 241.233 506.345 241.432C601.99 227.909 659.008 181.213 686.394 151.51C699.7 137.074 699.7 114.926 686.394 100.491C670.904 83.6962 645.92 61.4486 609.855 42.8495C640.081 60.1003 661.53 79.4925 675.392 94.5423L675.412 94.5423Z" fill="#557B4D"/>
</g>
<path d="M498.819 9.61711C562.35 136.757 507.815 229.079 499.136 242.403L506.345 241.452C506.485 241.253 508.57 238.299 511.608 232.846C526.285 206.514 562.827 122.124 506.345 10.5887" fill="#557B4D"/>
<path opacity="0.1" d="M551.268 189.977C551.268 189.977 579.787 129.619 551.268 62.0433C551.268 62.0433 600.6 123.333 551.268 189.977Z" fill="#557B4D"/>
<path d="M667.17 126.011L586.42 126.011" stroke="#557B4D" stroke-width="0.5" stroke-linecap="round" stroke-linejoin="round"/>
<path d="M649.991 120.042L586.42 114.887" stroke="#557B4D" stroke-width="0.5" stroke-linecap="round" stroke-linejoin="round"/>
<path d="M649.991 131.959L586.42 137.114" stroke="#557B4D" stroke-width="0.5" stroke-linecap="round" stroke-linejoin="round"/>
<path d="M55.4287 8.10957C48.6367 9.5967 6.11685 23.0206 8.00353 126.01C6.11686 228.979 48.6367 242.403 55.4287 243.91C55.965 244.029 56.5012 244.068 57.0573 244.068L63.8294 244.068C63.2734 244.068 62.7372 244.009 62.2009 243.91C55.4089 242.423 12.889 228.999 14.7757 126.01C12.889 23.0404 55.4089 9.5967 62.2009 8.10957C62.7371 7.9906 63.2734 7.95094 63.8294 7.95094L57.0572 7.95094C56.5012 7.95094 55.965 8.01042 55.4287 8.10957Z" fill="#C02F59"/>
<path d="M686.414 100.49C699.721 114.926 699.721 137.074 686.414 151.509C656.823 183.592 592.696 235.542 482.613 244.049C482.395 244.049 482.156 244.068 481.938 244.068L488.71 244.068C488.929 244.068 489.167 244.068 489.385 244.049C599.468 235.542 663.596 183.592 693.187 151.509C706.493 137.074 706.493 114.926 693.187 100.49C663.596 68.4079 599.468 16.4573 489.385 7.95094C489.167 7.95094 488.929 7.93112 488.71 7.93112L481.938 7.93112C482.156 7.93112 482.395 7.93111 482.613 7.95094C592.696 16.4573 656.823 68.4079 686.414 100.49Z" fill="#C02F59"/>
</g>
<g clip-path="url(#clip1_3521_25816)">
<path d="M508 211.837L508 164.227C508 158.884 503.587 154.552 498.142 154.552L466.365 154.552C460.921 154.552 456.508 158.884 456.508 164.227L456.508 211.837C456.508 217.181 460.921 221.512 466.365 221.512L498.142 221.512C503.587 221.512 508 217.181 508 211.837Z" fill="#F4F4F4"/>
<path d="M499.705 211.267L499.705 164.7C499.705 159.356 495.292 155.024 489.847 155.024L458.071 155.024C452.626 155.024 448.213 159.356 448.213 164.7L448.213 211.267C448.213 216.611 452.626 220.943 458.071 220.943L489.847 220.943C495.292 220.943 499.705 216.611 499.705 211.267Z" fill="white" stroke="#BDBDBD" stroke-width="0.5" stroke-miterlimit="10"/>
<path d="M466.065 187.963C466.065 179.198 460.566 172.093 453.783 172.093C447 172.093 441.501 179.198 441.501 187.963C441.501 196.728 447 203.833 453.783 203.833C460.566 203.833 466.065 196.728 466.065 187.963Z" fill="white" stroke="#BDBDBD" stroke-width="0.5" stroke-miterlimit="10"/>
<path d="M488.104 212.545L488.104 163.421C488.104 161.651 486.642 160.216 484.838 160.216L474.039 160.216C472.235 160.216 470.773 161.651 470.773 163.421L470.773 212.545C470.773 214.316 472.235 215.751 474.039 215.751L484.838 215.751C486.642 215.751 488.104 214.316 488.104 212.545Z" stroke="#BDBDBD" stroke-width="0.5" stroke-miterlimit="10"/>
<path d="M453.783 192.133C452.741 192.133 451.839 191.248 451.379 189.93C451.178 189.34 451.058 188.672 451.058 187.964C451.058 185.663 452.28 183.795 453.783 183.795C455.286 183.795 456.508 185.663 456.508 187.964C456.508 190.265 455.286 192.133 453.783 192.133V192.133Z" stroke="#BDBDBD" stroke-width="0.5" stroke-miterlimit="10"/>
<path d="M453.783 200.137C449.094 200.137 445.207 195.712 444.486 189.911C444.406 189.281 444.366 188.632 444.366 187.964C444.366 181.238 448.574 175.791 453.783 175.791C458.992 175.791 463.2 181.238 463.2 187.964C463.2 194.689 458.992 200.137 453.783 200.137V200.137Z" stroke="#BDBDBD" stroke-width="0.5" stroke-miterlimit="10"/>
<path d="M452.42 184.09L452.42 175.988" stroke="#BDBDBD" stroke-width="0.5" stroke-miterlimit="10"/>
<path d="M455.225 184.443L455.225 175.987" stroke="#BDBDBD" stroke-width="0.5" stroke-miterlimit="10"/>
<path d="M452.42 199.625L452.42 191.523" stroke="#BDBDBD" stroke-width="0.5" stroke-miterlimit="10"/>
<path d="M455.225 199.999L455.225 191.523" stroke="#BDBDBD" stroke-width="0.5" stroke-miterlimit="10"/>
<path d="M443.905 186.331L451.258 186.331" stroke="#BDBDBD" stroke-width="0.5" stroke-miterlimit="10"/>
<path d="M443.905 189.419L451.258 189.419" stroke="#BDBDBD" stroke-width="0.5" stroke-miterlimit="10"/>
<path d="M455.546 183.814L458.411 183.814C459.734 183.814 460.815 184.797 460.815 186.036L460.815 189.93C460.815 191.149 459.734 192.152 458.411 192.152L455.546 192.152" stroke="#BDBDBD" stroke-width="0.5" stroke-miterlimit="10"/>
</g>
<g clip-path="url(#clip2_3521_25816)">
<path d="M323.522 40.9486L323.522 113.3C323.522 117.37 326.728 120.669 330.684 120.669L340.988 120.669C344.943 120.669 348.15 117.37 348.15 113.3L348.15 40.9486C348.15 36.8786 344.943 33.5793 340.988 33.5793L330.684 33.5793C326.728 33.5793 323.522 36.8786 323.522 40.9486Z" fill="#F4F4F4"/>
<path d="M338.845 38.5057L338.845 116.149L291.59 116.149C285.447 116.149 280.446 111.004 280.446 104.664L280.446 49.973C280.446 43.6329 285.447 38.5057 291.59 38.5057L338.845 38.5057V38.5057Z" fill="#BDBDBD" stroke="white" stroke-width="0.460591" stroke-miterlimit="10"/>
<path d="M330.559 38.5047C322.558 40.9672 316.539 51.3504 316.539 63.7734L316.539 90.4755C316.539 102.898 322.558 113.263 330.559 115.744" fill="#BDBDBD"/>
<path d="M330.559 38.5047C322.558 40.9672 316.539 51.3504 316.539 63.7734L316.539 90.4755C316.539 102.898 322.558 113.263 330.559 115.744" stroke="white" stroke-width="0.460591" stroke-miterlimit="10"/>
<path d="M314.093 111.389C311.637 111.389 309.646 113.438 309.646 115.965C309.646 118.492 311.637 120.541 314.093 120.541L334.434 120.541C336.89 120.541 338.881 118.492 338.881 115.965C338.881 113.438 336.89 111.389 334.434 111.389L314.093 111.389Z" fill="#BDBDBD" stroke="white" stroke-width="0.460591" stroke-miterlimit="10"/>
<path d="M314.093 33.9292C311.637 33.9292 309.646 35.9779 309.646 38.5051C309.646 41.0323 311.637 43.0811 314.093 43.0811L334.434 43.0811C336.89 43.0811 338.881 41.0323 338.881 38.5051C338.881 35.9779 336.89 33.9292 334.434 33.9292L314.093 33.9292Z" fill="#BDBDBD" stroke="white" stroke-width="0.460591" stroke-miterlimit="10"/>
</g>
<g clip-path="url(#clip3_3521_25816)">
<path d="M323.522 141.461L323.522 213.812C323.522 217.882 326.728 221.182 330.684 221.182L340.988 221.182C344.943 221.182 348.15 217.882 348.15 213.812L348.15 141.461C348.15 137.391 344.943 134.092 340.988 134.092L330.684 134.092C326.728 134.092 323.522 137.391 323.522 141.461Z" fill="#F4F4F4"/>
<path d="M338.845 139.018L338.845 216.662L291.59 216.662C285.447 216.662 280.446 211.516 280.446 205.176L280.446 150.486C280.446 144.146 285.447 139.018 291.59 139.018L338.845 139.018V139.018Z" fill="#BDBDBD" stroke="white" stroke-width="0.460591" stroke-miterlimit="10"/>
<path d="M330.559 139.017C322.558 141.48 316.539 151.863 316.539 164.286L316.539 190.988C316.539 203.411 322.558 213.776 330.559 216.257" fill="#BDBDBD"/>
<path d="M330.559 139.017C322.558 141.48 316.539 151.863 316.539 164.286L316.539 190.988C316.539 203.411 322.558 213.776 330.559 216.257" stroke="white" stroke-width="0.460591" stroke-miterlimit="10"/>
<path d="M314.093 211.902C311.637 211.902 309.646 213.951 309.646 216.478C309.646 219.005 311.637 221.054 314.093 221.054L334.434 221.054C336.89 221.054 338.881 219.005 338.881 216.478C338.881 213.951 336.89 211.902 334.434 211.902L314.093 211.902Z" fill="#BDBDBD" stroke="white" stroke-width="0.460591" stroke-miterlimit="10"/>
<path d="M314.093 134.442C311.637 134.442 309.646 136.491 309.646 139.018C309.646 141.545 311.637 143.594 314.093 143.594L334.434 143.594C336.89 143.594 338.881 141.545 338.881 139.018C338.881 136.491 336.89 134.442 334.434 134.442L314.093 134.442Z" fill="#BDBDBD" stroke="white" stroke-width="0.460591" stroke-miterlimit="10"/>
</g>
<g clip-path="url(#clip4_3521_25816)">
<path d="M244.516 41.5798L244.516 113.658C244.516 117.713 247.723 121 251.679 121L261.986 121C265.943 121 269.15 117.713 269.15 113.658L269.15 41.5798C269.15 37.5252 265.943 34.2383 261.986 34.2383L251.679 34.2383C247.723 34.2383 244.516 37.5252 244.516 41.5798Z" fill="#F4F4F4"/>
<path d="M251.536 38.5778C243.533 41.0311 237.513 51.3751 237.513 63.7513L237.513 90.3528C237.513 102.729 243.533 113.055 251.536 115.526" fill="white"/>
<path d="M259.807 38.5773L259.807 115.929L212.558 115.929C206.395 115.929 201.411 110.802 201.411 104.486L201.411 50.0016C201.411 43.6853 206.413 38.5773 212.558 38.5773L259.825 38.5773L259.807 38.5773Z" fill="white"/>
<path d="M235.066 111.187C232.609 111.187 230.618 113.228 230.618 115.746C230.618 118.264 232.609 120.305 235.066 120.305L255.412 120.305C257.869 120.305 259.861 118.264 259.861 115.746C259.861 113.228 257.869 111.187 255.412 111.187L235.066 111.187Z" fill="white"/>
<path d="M235.066 34.0193C232.609 34.0193 230.618 36.0603 230.618 38.578C230.618 41.0957 232.609 43.1367 235.066 43.1367L255.412 43.1367C257.869 43.1367 259.861 41.0957 259.861 38.578C259.861 36.0603 257.869 34.0193 255.412 34.0193L235.066 34.0193Z" fill="white"/>
<path d="M251.572 38.486C243.569 40.9393 237.549 51.2833 237.549 63.6595L237.549 90.261C237.549 102.637 243.569 112.963 251.572 115.435" stroke="#ED2F59" stroke-width="0.460591" stroke-miterlimit="10"/>
<path d="M259.861 38.4855L259.861 115.837L212.594 115.837C206.448 115.837 201.447 110.711 201.447 104.394L201.447 49.9097C201.447 43.5935 206.448 38.4855 212.594 38.4855L259.861 38.4855Z" stroke="#ED2F59" stroke-width="0.460591" stroke-miterlimit="10"/>
<path d="M235.102 111.095C232.645 111.095 230.654 113.136 230.654 115.654C230.654 118.172 232.645 120.213 235.102 120.213L255.448 120.213C257.905 120.213 259.896 118.172 259.896 115.654C259.896 113.136 257.905 111.095 255.448 111.095L235.102 111.095Z" fill="white" stroke="#ED2F59" stroke-width="0.460591" stroke-miterlimit="10"/>
<path d="M235.102 33.9275C232.645 33.9275 230.654 35.9685 230.654 38.4862C230.654 41.0039 232.645 43.0449 235.102 43.0449L255.448 43.0449C257.905 43.0449 259.896 41.0039 259.896 38.4862C259.896 35.9685 257.905 33.9275 255.448 33.9275L235.102 33.9275Z" fill="white" stroke="#ED2F59" stroke-width="0.460591" stroke-miterlimit="10"/>
</g>
<g clip-path="url(#clip5_3521_25816)">
<path d="M324.516 41.5798L324.516 113.658C324.516 117.713 327.723 121 331.679 121L341.986 121C345.943 121 349.15 117.713 349.15 113.658L349.15 41.5798C349.15 37.5252 345.943 34.2383 341.986 34.2383L331.679 34.2383C327.723 34.2383 324.516 37.5252 324.516 41.5798Z" fill="#F4F4F4"/>
<path d="M331.536 38.5778C323.533 41.0311 317.513 51.3751 317.513 63.7513L317.513 90.3528C317.513 102.729 323.533 113.055 331.536 115.526" fill="white"/>
<path d="M339.807 38.5773L339.807 115.929L292.558 115.929C286.395 115.929 281.411 110.802 281.411 104.486L281.411 50.0016C281.411 43.6853 286.413 38.5773 292.558 38.5773L339.825 38.5773L339.807 38.5773Z" fill="white"/>
<path d="M315.066 111.187C312.609 111.187 310.618 113.228 310.618 115.746C310.618 118.264 312.609 120.305 315.066 120.305L335.412 120.305C337.869 120.305 339.861 118.264 339.861 115.746C339.861 113.228 337.869 111.187 335.412 111.187L315.066 111.187Z" fill="white"/>
<path d="M315.066 34.0193C312.609 34.0193 310.618 36.0603 310.618 38.578C310.618 41.0957 312.609 43.1367 315.066 43.1367L335.412 43.1367C337.869 43.1367 339.861 41.0957 339.861 38.578C339.861 36.0603 337.869 34.0193 335.412 34.0193L315.066 34.0193Z" fill="white"/>
<path d="M331.572 38.486C323.569 40.9393 317.549 51.2833 317.549 63.6595L317.549 90.261C317.549 102.637 323.569 112.963 331.572 115.435" stroke="#ED2F59" stroke-width="0.460591" stroke-miterlimit="10"/>
<path d="M339.861 38.4855L339.861 115.837L292.594 115.837C286.448 115.837 281.447 110.711 281.447 104.394L281.447 49.9097C281.447 43.5935 286.448 38.4855 292.594 38.4855L339.861 38.4855Z" stroke="#ED2F59" stroke-width="0.460591" stroke-miterlimit="10"/>
<path d="M315.102 111.095C312.645 111.095 310.654 113.136 310.654 115.654C310.654 118.172 312.645 120.213 315.102 120.213L335.448 120.213C337.905 120.213 339.896 118.172 339.896 115.654C339.896 113.136 337.905 111.095 335.448 111.095L315.102 111.095Z" fill="white" stroke="#ED2F59" stroke-width="0.460591" stroke-miterlimit="10"/>
<path d="M315.102 33.9275C312.645 33.9275 310.654 35.9685 310.654 38.4862C310.654 41.0039 312.645 43.0449 315.102 43.0449L335.448 43.0449C337.905 43.0449 339.896 41.0039 339.896 38.4862C339.896 35.9685 337.905 33.9275 335.448 33.9275L315.102 33.9275Z" fill="white" stroke="#ED2F59" stroke-width="0.460591" stroke-miterlimit="10"/>
</g>
<g clip-path="url(#clip6_3521_25816)">
<path d="M164.104 41.5798L164.104 113.658C164.104 117.713 167.354 121 171.364 121L181.81 121C185.82 121 189.071 117.713 189.071 113.658L189.071 41.5798C189.071 37.5252 185.82 34.2383 181.81 34.2383L171.364 34.2383C167.354 34.2383 164.104 37.5252 164.104 41.5798Z" fill="#F4F4F4"/>
<path d="M171.219 38.5778C163.108 41.0311 157.007 51.3751 157.007 63.7513L157.007 90.3528C157.007 102.729 163.108 113.055 171.219 115.526" fill="white"/>
<path d="M179.602 38.5773L179.602 115.929L131.714 115.929C125.468 115.929 120.416 110.802 120.416 104.486L120.416 50.0016C120.416 43.6853 125.486 38.5773 131.714 38.5773L179.62 38.5773L179.602 38.5773Z" fill="white"/>
<path d="M154.526 111.187C152.036 111.187 150.018 113.228 150.018 115.746C150.018 118.264 152.036 120.305 154.526 120.305L175.148 120.305C177.638 120.305 179.656 118.264 179.656 115.746C179.656 113.228 177.638 111.187 175.148 111.187L154.526 111.187Z" fill="white"/>
<path d="M154.526 34.0193C152.036 34.0193 150.018 36.0603 150.018 38.578C150.018 41.0957 152.036 43.1367 154.526 43.1367L175.148 43.1367C177.638 43.1367 179.656 41.0957 179.656 38.578C179.656 36.0603 177.638 34.0193 175.148 34.0193L154.526 34.0193Z" fill="white"/>
<path d="M171.255 38.486C163.144 40.9393 157.043 51.2833 157.043 63.6595L157.043 90.261C157.043 102.637 163.144 112.963 171.255 115.435" stroke="#ED2F59" stroke-width="0.460591" stroke-miterlimit="10"/>
<path d="M179.656 38.4855L179.656 115.837L131.75 115.837C125.522 115.837 120.453 110.711 120.453 104.394L120.453 49.9097C120.453 43.5935 125.522 38.4855 131.75 38.4855L179.656 38.4855Z" stroke="#ED2F59" stroke-width="0.460591" stroke-miterlimit="10"/>
<path d="M154.562 111.095C152.073 111.095 150.054 113.136 150.054 115.654C150.054 118.172 152.073 120.213 154.562 120.213L175.184 120.213C177.674 120.213 179.692 118.172 179.692 115.654C179.692 113.136 177.674 111.095 175.184 111.095L154.562 111.095Z" fill="white" stroke="#ED2F59" stroke-width="0.460591" stroke-miterlimit="10"/>
<path d="M154.562 33.9275C152.073 33.9275 150.054 35.9685 150.054 38.4862C150.054 41.0039 152.073 43.0449 154.562 43.0449L175.184 43.0449C177.674 43.0449 179.692 41.0039 179.692 38.4862C179.692 35.9685 177.674 33.9275 175.184 33.9275L154.562 33.9275Z" fill="white" stroke="#ED2F59" stroke-width="0.460591" stroke-miterlimit="10"/>
</g>
<g clip-path="url(#clip7_3521_25816)">
<path d="M83.1038 41.5798L83.1038 113.658C83.1038 117.713 86.3542 121 90.3639 121L100.81 121C104.82 121 108.071 117.713 108.071 113.658L108.071 41.5798C108.071 37.5252 104.82 34.2383 100.81 34.2383L90.3639 34.2383C86.3542 34.2383 83.1038 37.5252 83.1038 41.5798Z" fill="#F4F4F4"/>
<path d="M90.219 38.5778C82.108 41.0311 76.0066 51.3751 76.0066 63.7513L76.0066 90.3528C76.0066 102.729 82.108 113.055 90.219 115.526" fill="white"/>
<path d="M98.6016 38.5773L98.6016 115.929L50.7139 115.929C44.4677 115.929 39.4164 110.802 39.4164 104.486L39.4164 50.0016C39.4164 43.6853 44.4858 38.5773 50.7139 38.5773L98.6197 38.5773L98.6016 38.5773Z" fill="white"/>
<path d="M73.5262 111.187C71.0364 111.187 69.0181 113.228 69.0181 115.746C69.0181 118.264 71.0364 120.305 73.5262 120.305L94.1478 120.305C96.6376 120.305 98.656 118.264 98.656 115.746C98.656 113.228 96.6376 111.187 94.1478 111.187L73.5262 111.187Z" fill="white"/>
<path d="M73.5262 34.0193C71.0364 34.0193 69.0181 36.0603 69.0181 38.578C69.0181 41.0957 71.0364 43.1367 73.5262 43.1367L94.1478 43.1367C96.6376 43.1367 98.656 41.0957 98.656 38.578C98.656 36.0603 96.6376 34.0193 94.1478 34.0193L73.5262 34.0193Z" fill="white"/>
<path d="M90.2553 38.486C82.1442 40.9393 76.0428 51.2833 76.0428 63.6595L76.0428 90.261C76.0428 102.637 82.1442 112.963 90.2553 115.435" stroke="#ED2F59" stroke-width="0.460591" stroke-miterlimit="10"/>
<path d="M98.656 38.4855L98.656 115.837L50.7502 115.837C44.522 115.837 39.4526 110.711 39.4526 104.394L39.4526 49.9097C39.4526 43.5935 44.522 38.4855 50.7502 38.4855L98.656 38.4855Z" stroke="#ED2F59" stroke-width="0.460591" stroke-miterlimit="10"/>
<path d="M73.5623 111.095C71.0726 111.095 69.0542 113.136 69.0542 115.654C69.0542 118.172 71.0726 120.213 73.5623 120.213L94.1839 120.213C96.6737 120.213 98.6921 118.172 98.6921 115.654C98.6921 113.136 96.6737 111.095 94.1839 111.095L73.5623 111.095Z" fill="white" stroke="#ED2F59" stroke-width="0.460591" stroke-miterlimit="10"/>
<path d="M73.5623 33.9275C71.0726 33.9275 69.0542 35.9685 69.0542 38.4862C69.0542 41.0039 71.0726 43.0449 73.5623 43.0449L94.1839 43.0449C96.6737 43.0449 98.6921 41.0039 98.6921 38.4862C98.6921 35.9685 96.6737 33.9275 94.1839 33.9275L73.5623 33.9275Z" fill="white" stroke="#ED2F59" stroke-width="0.460591" stroke-miterlimit="10"/>
</g>
<g clip-path="url(#clip8_3521_25816)">
<path d="M164.104 142.093L164.104 214.171C164.104 218.226 167.354 221.513 171.364 221.513L181.81 221.513C185.82 221.513 189.071 218.226 189.071 214.171L189.071 142.093C189.071 138.038 185.82 134.751 181.81 134.751L171.364 134.751C167.354 134.751 164.104 138.038 164.104 142.093Z" fill="#F4F4F4"/>
<path d="M171.219 139.09C163.108 141.544 157.007 151.888 157.007 164.264L157.007 190.866C157.007 203.242 163.108 213.567 171.219 216.039" fill="white"/>
<path d="M179.602 139.09L179.602 216.441L131.714 216.441C125.468 216.441 120.416 211.315 120.416 204.999L120.416 150.514C120.416 144.198 125.486 139.09 131.714 139.09L179.62 139.09L179.602 139.09Z" fill="white"/>
<path d="M154.526 211.7C152.036 211.7 150.018 213.741 150.018 216.259C150.018 218.776 152.036 220.817 154.526 220.817L175.148 220.817C177.638 220.817 179.656 218.776 179.656 216.259C179.656 213.741 177.638 211.7 175.148 211.7L154.526 211.7Z" fill="white"/>
<path d="M154.526 134.532C152.036 134.532 150.018 136.573 150.018 139.091C150.018 141.608 152.036 143.649 154.526 143.649L175.148 143.649C177.638 143.649 179.656 141.608 179.656 139.091C179.656 136.573 177.638 134.532 175.148 134.532L154.526 134.532Z" fill="white"/>
<path d="M171.255 138.999C163.144 141.452 157.043 151.796 157.043 164.172L157.043 190.774C157.043 203.15 163.144 213.476 171.255 215.947" stroke="#ED2F59" stroke-width="0.460591" stroke-miterlimit="10"/>
<path d="M179.656 138.998L179.656 216.35L131.75 216.35C125.522 216.35 120.453 211.223 120.453 204.907L120.453 150.422C120.453 144.106 125.522 138.998 131.75 138.998L179.656 138.998Z" stroke="#ED2F59" stroke-width="0.460591" stroke-miterlimit="10"/>
<path d="M154.562 211.608C152.073 211.608 150.054 213.649 150.054 216.167C150.054 218.685 152.073 220.726 154.562 220.726L175.184 220.726C177.674 220.726 179.692 218.685 179.692 216.167C179.692 213.649 177.674 211.608 175.184 211.608L154.562 211.608Z" fill="white" stroke="#ED2F59" stroke-width="0.460591" stroke-miterlimit="10"/>
<path d="M154.562 134.44C152.073 134.44 150.054 136.481 150.054 138.999C150.054 141.517 152.073 143.558 154.562 143.558L175.184 143.558C177.674 143.558 179.692 141.517 179.692 138.999C179.692 136.481 177.674 134.44 175.184 134.44L154.562 134.44Z" fill="white" stroke="#ED2F59" stroke-width="0.460591" stroke-miterlimit="10"/>
</g>
<g clip-path="url(#clip9_3521_25816)">
<path d="M244.104 142.093L244.104 214.171C244.104 218.226 247.354 221.513 251.364 221.513L261.81 221.513C265.82 221.513 269.071 218.226 269.071 214.171L269.071 142.093C269.071 138.038 265.82 134.751 261.81 134.751L251.364 134.751C247.354 134.751 244.104 138.038 244.104 142.093Z" fill="#F4F4F4"/>
<path d="M251.219 139.09C243.108 141.544 237.007 151.888 237.007 164.264L237.007 190.866C237.007 203.242 243.108 213.567 251.219 216.039" fill="white"/>
<path d="M259.602 139.09L259.602 216.441L211.714 216.441C205.468 216.441 200.416 211.315 200.416 204.999L200.416 150.514C200.416 144.198 205.486 139.09 211.714 139.09L259.62 139.09L259.602 139.09Z" fill="white"/>
<path d="M234.526 211.7C232.036 211.7 230.018 213.741 230.018 216.259C230.018 218.776 232.036 220.817 234.526 220.817L255.148 220.817C257.638 220.817 259.656 218.776 259.656 216.259C259.656 213.741 257.638 211.7 255.148 211.7L234.526 211.7Z" fill="white"/>
<path d="M234.526 134.532C232.036 134.532 230.018 136.573 230.018 139.091C230.018 141.608 232.036 143.649 234.526 143.649L255.148 143.649C257.638 143.649 259.656 141.608 259.656 139.091C259.656 136.573 257.638 134.532 255.148 134.532L234.526 134.532Z" fill="white"/>
<path d="M251.255 138.999C243.144 141.452 237.043 151.796 237.043 164.172L237.043 190.774C237.043 203.15 243.144 213.476 251.255 215.947" stroke="#ED2F59" stroke-width="0.460591" stroke-miterlimit="10"/>
<path d="M259.656 138.998L259.656 216.35L211.75 216.35C205.522 216.35 200.453 211.223 200.453 204.907L200.453 150.422C200.453 144.106 205.522 138.998 211.75 138.998L259.656 138.998Z" stroke="#ED2F59" stroke-width="0.460591" stroke-miterlimit="10"/>
<path d="M234.562 211.608C232.073 211.608 230.054 213.649 230.054 216.167C230.054 218.685 232.073 220.726 234.562 220.726L255.184 220.726C257.674 220.726 259.692 218.685 259.692 216.167C259.692 213.649 257.674 211.608 255.184 211.608L234.562 211.608Z" fill="white" stroke="#ED2F59" stroke-width="0.460591" stroke-miterlimit="10"/>
<path d="M234.562 134.44C232.073 134.44 230.054 136.481 230.054 138.999C230.054 141.517 232.073 143.558 234.562 143.558L255.184 143.558C257.674 143.558 259.692 141.517 259.692 138.999C259.692 136.481 257.674 134.44 255.184 134.44L234.562 134.44Z" fill="white" stroke="#ED2F59" stroke-width="0.460591" stroke-miterlimit="10"/>
</g>
<g clip-path="url(#clip10_3521_25816)">
<path d="M324.104 142.093L324.104 214.171C324.104 218.226 327.354 221.513 331.364 221.513L341.81 221.513C345.82 221.513 349.071 218.226 349.071 214.171L349.071 142.093C349.071 138.038 345.82 134.751 341.81 134.751L331.364 134.751C327.354 134.751 324.104 138.038 324.104 142.093Z" fill="#F4F4F4"/>
<path d="M331.219 139.09C323.108 141.544 317.007 151.888 317.007 164.264L317.007 190.866C317.007 203.242 323.108 213.567 331.219 216.039" fill="white"/>
<path d="M339.602 139.09L339.602 216.441L291.714 216.441C285.468 216.441 280.416 211.315 280.416 204.999L280.416 150.514C280.416 144.198 285.486 139.09 291.714 139.09L339.62 139.09L339.602 139.09Z" fill="white"/>
<path d="M314.526 211.7C312.036 211.7 310.018 213.741 310.018 216.259C310.018 218.776 312.036 220.817 314.526 220.817L335.148 220.817C337.638 220.817 339.656 218.776 339.656 216.259C339.656 213.741 337.638 211.7 335.148 211.7L314.526 211.7Z" fill="white"/>
<path d="M314.526 134.532C312.036 134.532 310.018 136.573 310.018 139.091C310.018 141.608 312.036 143.649 314.526 143.649L335.148 143.649C337.638 143.649 339.656 141.608 339.656 139.091C339.656 136.573 337.638 134.532 335.148 134.532L314.526 134.532Z" fill="white"/>
<path d="M331.255 138.999C323.144 141.452 317.043 151.796 317.043 164.172L317.043 190.774C317.043 203.15 323.144 213.476 331.255 215.947" stroke="#ED2F59" stroke-width="0.460591" stroke-miterlimit="10"/>
<path d="M339.656 138.998L339.656 216.35L291.75 216.35C285.522 216.35 280.453 211.223 280.453 204.907L280.453 150.422C280.453 144.106 285.522 138.998 291.75 138.998L339.656 138.998Z" stroke="#ED2F59" stroke-width="0.460591" stroke-miterlimit="10"/>
<path d="M314.562 211.608C312.073 211.608 310.054 213.649 310.054 216.167C310.054 218.685 312.073 220.726 314.562 220.726L335.184 220.726C337.674 220.726 339.692 218.685 339.692 216.167C339.692 213.649 337.674 211.608 335.184 211.608L314.562 211.608Z" fill="white" stroke="#ED2F59" stroke-width="0.460591" stroke-miterlimit="10"/>
<path d="M314.562 134.44C312.073 134.44 310.054 136.481 310.054 138.999C310.054 141.517 312.073 143.558 314.562 143.558L335.184 143.558C337.674 143.558 339.692 141.517 339.692 138.999C339.692 136.481 337.674 134.44 335.184 134.44L314.562 134.44Z" fill="white" stroke="#ED2F59" stroke-width="0.460591" stroke-miterlimit="10"/>
</g>
<g clip-path="url(#clip11_3521_25816)">
<path d="M83.1038 142.093L83.1038 214.171C83.1038 218.226 86.3542 221.513 90.3639 221.513L100.81 221.513C104.82 221.513 108.071 218.226 108.071 214.171L108.071 142.093C108.071 138.038 104.82 134.751 100.81 134.751L90.3639 134.751C86.3542 134.751 83.1038 138.038 83.1038 142.093Z" fill="#F4F4F4"/>
<path d="M90.219 139.09C82.108 141.544 76.0066 151.888 76.0066 164.264L76.0066 190.866C76.0066 203.242 82.108 213.567 90.219 216.039" fill="white"/>
<path d="M98.6016 139.09L98.6016 216.441L50.7139 216.441C44.4677 216.441 39.4164 211.315 39.4164 204.999L39.4164 150.514C39.4164 144.198 44.4858 139.09 50.7139 139.09L98.6197 139.09L98.6016 139.09Z" fill="white"/>
<path d="M73.5262 211.7C71.0364 211.7 69.0181 213.741 69.0181 216.259C69.0181 218.776 71.0364 220.817 73.5262 220.817L94.1478 220.817C96.6376 220.817 98.656 218.776 98.656 216.259C98.656 213.741 96.6376 211.7 94.1478 211.7L73.5262 211.7Z" fill="white"/>
<path d="M73.5262 134.532C71.0364 134.532 69.0181 136.573 69.0181 139.091C69.0181 141.608 71.0364 143.649 73.5262 143.649L94.1478 143.649C96.6376 143.649 98.656 141.608 98.656 139.091C98.656 136.573 96.6376 134.532 94.1478 134.532L73.5262 134.532Z" fill="white"/>
<path d="M90.2553 138.999C82.1442 141.452 76.0428 151.796 76.0428 164.172L76.0428 190.774C76.0428 203.15 82.1442 213.476 90.2553 215.947" stroke="#ED2F59" stroke-width="0.460591" stroke-miterlimit="10"/>
<path d="M98.656 138.998L98.656 216.35L50.7502 216.35C44.522 216.35 39.4526 211.223 39.4526 204.907L39.4526 150.422C39.4526 144.106 44.522 138.998 50.7502 138.998L98.656 138.998Z" stroke="#ED2F59" stroke-width="0.460591" stroke-miterlimit="10"/>
<path d="M73.5623 211.608C71.0726 211.608 69.0542 213.649 69.0542 216.167C69.0542 218.685 71.0726 220.726 73.5623 220.726L94.1839 220.726C96.6737 220.726 98.6921 218.685 98.6921 216.167C98.6921 213.649 96.6737 211.608 94.1839 211.608L73.5623 211.608Z" fill="white" stroke="#ED2F59" stroke-width="0.460591" stroke-miterlimit="10"/>
<path d="M73.5623 134.44C71.0726 134.44 69.0542 136.481 69.0542 138.999C69.0542 141.517 71.0726 143.558 73.5623 143.558L94.1839 143.558C96.6737 143.558 98.6921 141.517 98.6921 138.999C98.6921 136.481 96.6737 134.44 94.1839 134.44L73.5623 134.44Z" fill="white" stroke="#ED2F59" stroke-width="0.460591" stroke-miterlimit="10"/>
</g>
<g clip-path="url(#clip12_3521_25816)">
<path d="M405.516 41.5798L405.516 113.658C405.516 117.713 408.723 121 412.679 121L422.986 121C426.943 121 430.15 117.713 430.15 113.658L430.15 41.5798C430.15 37.5252 426.943 34.2383 422.986 34.2383L412.679 34.2383C408.723 34.2383 405.516 37.5252 405.516 41.5798Z" fill="#F4F4F4"/>
<path d="M412.536 38.5778C404.533 41.0311 398.513 51.3751 398.513 63.7513L398.513 90.3528C398.513 102.729 404.533 113.055 412.536 115.526" fill="white"/>
<path d="M420.807 38.5773L420.807 115.929L373.558 115.929C367.395 115.929 362.411 110.802 362.411 104.486L362.411 50.0016C362.411 43.6853 367.413 38.5773 373.558 38.5773L420.825 38.5773L420.807 38.5773Z" fill="white"/>
<path d="M396.066 111.187C393.609 111.187 391.618 113.228 391.618 115.746C391.618 118.264 393.609 120.305 396.066 120.305L416.412 120.305C418.869 120.305 420.861 118.264 420.861 115.746C420.861 113.228 418.869 111.187 416.412 111.187L396.066 111.187Z" fill="white"/>
<path d="M396.066 34.0193C393.609 34.0193 391.618 36.0603 391.618 38.578C391.618 41.0957 393.609 43.1367 396.066 43.1367L416.412 43.1367C418.869 43.1367 420.861 41.0957 420.861 38.578C420.861 36.0603 418.869 34.0193 416.412 34.0193L396.066 34.0193Z" fill="white"/>
<path d="M412.572 38.486C404.569 40.9393 398.549 51.2833 398.549 63.6595L398.549 90.261C398.549 102.637 404.569 112.963 412.572 115.435" stroke="#ED2F59" stroke-width="0.460591" stroke-miterlimit="10"/>
<path d="M420.861 38.4855L420.861 115.837L373.594 115.837C367.448 115.837 362.447 110.711 362.447 104.394L362.447 49.9097C362.447 43.5935 367.448 38.4855 373.594 38.4855L420.861 38.4855Z" stroke="#ED2F59" stroke-width="0.460591" stroke-miterlimit="10"/>
<path d="M396.102 111.095C393.645 111.095 391.654 113.136 391.654 115.654C391.654 118.172 393.645 120.213 396.102 120.213L416.448 120.213C418.905 120.213 420.896 118.172 420.896 115.654C420.896 113.136 418.905 111.095 416.448 111.095L396.102 111.095Z" fill="white" stroke="#ED2F59" stroke-width="0.460591" stroke-miterlimit="10"/>
<path d="M396.102 33.9275C393.645 33.9275 391.654 35.9685 391.654 38.4862C391.654 41.0039 393.645 43.0449 396.102 43.0449L416.448 43.0449C418.905 43.0449 420.896 41.0039 420.896 38.4862C420.896 35.9685 418.905 33.9275 416.448 33.9275L396.102 33.9275Z" fill="white" stroke="#ED2F59" stroke-width="0.460591" stroke-miterlimit="10"/>
</g>
<g clip-path="url(#clip13_3521_25816)">
<path d="M405.104 142.093L405.104 214.171C405.104 218.226 408.354 221.513 412.364 221.513L422.81 221.513C426.82 221.513 430.071 218.226 430.071 214.171L430.071 142.093C430.071 138.038 426.82 134.751 422.81 134.751L412.364 134.751C408.354 134.751 405.104 138.038 405.104 142.093Z" fill="#F4F4F4"/>
<path d="M412.219 139.09C404.108 141.544 398.007 151.888 398.007 164.264L398.007 190.866C398.007 203.242 404.108 213.567 412.219 216.039" fill="white"/>
<path d="M420.602 139.09L420.602 216.441L372.714 216.441C366.468 216.441 361.416 211.315 361.416 204.999L361.416 150.514C361.416 144.198 366.486 139.09 372.714 139.09L420.62 139.09L420.602 139.09Z" fill="white"/>
<path d="M395.526 211.7C393.036 211.7 391.018 213.741 391.018 216.259C391.018 218.776 393.036 220.817 395.526 220.817L416.148 220.817C418.638 220.817 420.656 218.776 420.656 216.259C420.656 213.741 418.638 211.7 416.148 211.7L395.526 211.7Z" fill="white"/>
<path d="M395.526 134.532C393.036 134.532 391.018 136.573 391.018 139.091C391.018 141.608 393.036 143.649 395.526 143.649L416.148 143.649C418.638 143.649 420.656 141.608 420.656 139.091C420.656 136.573 418.638 134.532 416.148 134.532L395.526 134.532Z" fill="white"/>
<path d="M412.255 138.999C404.144 141.452 398.043 151.796 398.043 164.172L398.043 190.774C398.043 203.15 404.144 213.476 412.255 215.947" stroke="#ED2F59" stroke-width="0.460591" stroke-miterlimit="10"/>
<path d="M420.656 138.998L420.656 216.35L372.75 216.35C366.522 216.35 361.453 211.223 361.453 204.907L361.453 150.422C361.453 144.106 366.522 138.998 372.75 138.998L420.656 138.998Z" stroke="#ED2F59" stroke-width="0.460591" stroke-miterlimit="10"/>
<path d="M395.562 211.608C393.073 211.608 391.054 213.649 391.054 216.167C391.054 218.685 393.073 220.726 395.562 220.726L416.184 220.726C418.674 220.726 420.692 218.685 420.692 216.167C420.692 213.649 418.674 211.608 416.184 211.608L395.562 211.608Z" fill="white" stroke="#ED2F59" stroke-width="0.460591" stroke-miterlimit="10"/>
<path d="M395.562 134.44C393.073 134.44 391.054 136.481 391.054 138.999C391.054 141.517 393.073 143.558 395.562 143.558L416.184 143.558C418.674 143.558 420.692 141.517 420.692 138.999C420.692 136.481 418.674 134.44 416.184 134.44L395.562 134.44Z" fill="white" stroke="#ED2F59" stroke-width="0.460591" stroke-miterlimit="10"/>
</g>
<defs>
<clipPath id="clip0_3521_25816">
<rect width="252" height="704.348" fill="white" transform="translate(0 252) rotate(-90)"/>
</clipPath>
<clipPath id="clip1_3521_25816">
<rect width="67" height="67" fill="white" transform="translate(441 221.513) rotate(-90)"/>
</clipPath>
<clipPath id="clip2_3521_25816">
<rect width="87.5123" height="68.1675" fill="white" transform="translate(280 121) rotate(-90)"/>
</clipPath>
<clipPath id="clip3_3521_25816">
<rect width="87.5123" height="68.1675" fill="white" transform="translate(280 221.513) rotate(-90)"/>
</clipPath>
<clipPath id="clip4_3521_25816">
<rect width="87.5123" height="68.1675" fill="white" transform="translate(201 121) rotate(-90)"/>
</clipPath>
<clipPath id="clip5_3521_25816">
<rect width="87.5123" height="68.1675" fill="white" transform="translate(281 121) rotate(-90)"/>
</clipPath>
<clipPath id="clip6_3521_25816">
<rect width="87.5123" height="69.0887" fill="white" transform="translate(120 121) rotate(-90)"/>
</clipPath>
<clipPath id="clip7_3521_25816">
<rect width="87.5123" height="69.0887" fill="red" transform="translate(39 121) rotate(-90)"/>
</clipPath>
<clipPath id="clip8_3521_25816">
<rect width="87.5123" height="69.0887" fill="white" transform="translate(120 221.513) rotate(-90)"/>
</clipPath>
<clipPath id="clip9_3521_25816">
<rect width="87.5123" height="69.0887" fill="white" transform="translate(200 221.513) rotate(-90)"/>
</clipPath>
<clipPath id="clip10_3521_25816">
<rect width="87.5123" height="69.0887" fill="white" transform="translate(280 221.513) rotate(-90)"/>
</clipPath>
<clipPath id="clip11_3521_25816">
<rect width="87.5123" height="69.0887" fill="white" transform="translate(39 221.513) rotate(-90)"/>
</clipPath>
<clipPath id="clip12_3521_25816">
<rect width="87.5123" height="68.1675" fill="white" transform="translate(362 121) rotate(-90)"/>
</clipPath>
<clipPath id="clip13_3521_25816">
<rect width="87.5123" height="69.0887" fill="white" transform="translate(361 221.513) rotate(-90)"/>
</clipPath>
</defs>
</svg>
