<?xml version="1.0" encoding="utf-8"?>
<!-- Generator: Adobe Illustrator 26.5.0, SVG Export Plug-In . SVG Version: 6.00 Build 0)  -->
<svg version="1.1" id="Capa_1" xmlns="http://www.w3.org/2000/svg" xmlns:xlink="http://www.w3.org/1999/xlink" x="0px" y="0px"
	 viewBox="0 0 792 252" style="enable-background:new 0 0 792 252;" xml:space="preserve">
<style type="text/css">
	.st0{clip-path:url(#SVGID_00000102503352533059973220000000219538444818098831_);}
	.st1{fill:#ED2F59;}
	.st2{fill:#FFFFFF;}
	.st3{fill:#F4F4F4;}
	.st4{opacity:0.1;fill:#BDBDBD;enable-background:new    ;}
	.st5{fill:#A8CF45;}
	.st6{opacity:0.1;}
	.st7{opacity:0.1;fill:#557B4D;enable-background:new    ;}
	.st8{fill:#557B4D;}
	.st9{fill:none;stroke:#557B4D;stroke-width:0.5;stroke-linecap:round;stroke-linejoin:round;}
	.st10{fill:#C02F59;}
	.st11{clip-path:url(#SVGID_00000003788871359645113500000007644633049009651624_);}
	.st12{fill:#FFFFFF;stroke:#BDBDBD;stroke-width:0.5;stroke-miterlimit:10;}
	.st13{fill:none;stroke:#BDBDBD;stroke-width:0.5;stroke-miterlimit:10;}
	.st14{clip-path:url(#SVGID_00000133510875969952179020000004874435895188291216_);}
	.st15{fill:none;stroke:#ED2F59;stroke-width:0.4606;stroke-miterlimit:10;}
	.st16{fill:#FFFFFF;stroke:#ED2F59;stroke-width:0.4606;stroke-miterlimit:10;}
	.st17{clip-path:url(#SVGID_00000137842612124574475330000009940398342991702940_);}
	.st18{clip-path:url(#SVGID_00000105403031666730558840000007465831494499670178_);}
	.st19{clip-path:url(#SVGID_00000160898152651683827930000017841875190136267399_);}
	.st20{clip-path:url(#SVGID_00000090283282513498410570000006636994702233964418_);}
	.st21{clip-path:url(#SVGID_00000071552044095097600180000004503492986946755247_);}
	.st22{clip-path:url(#SVGID_00000124852005626860637200000003571461739838867352_);}
	.st23{clip-path:url(#SVGID_00000016755180146808876820000006601637696004477369_);}
	.st24{clip-path:url(#SVGID_00000089570661840283637140000001952764387386748595_);}
	.st25{clip-path:url(#SVGID_00000096742211005771733050000004596559618854918567_);}
	.st26{clip-path:url(#SVGID_00000037657819974353357860000013987547201445196971_);}
	.st27{clip-path:url(#SVGID_00000003097873496756697020000006600159985957690809_);}
</style>
<g>
	<defs>
		<rect id="SVGID_1_" x="2.2" width="789.2" height="252"/>
	</defs>
	<clipPath id="SVGID_00000137849581653236095330000002166677602206937757_">
		<use xlink:href="#SVGID_1_"  style="overflow:visible;"/>
	</clipPath>
	<g style="clip-path:url(#SVGID_00000137849581653236095330000002166677602206937757_);">
		<path class="st1" d="M791.3,126c0,11.5-4.3,22.4-12.1,30.9c-29.3,31.7-95.4,86.3-209,95.1c-0.4,0-0.9,0-1.3,0H59.2
			c-1.2,0-2.3-0.1-3.3-0.4c-9-2-53.7-16.9-53.7-119.1c0-2.2,0-4.4,0.1-6.6c0-2.2-0.1-4.4-0.1-6.6C2.2,17.3,46.9,2.3,55.9,0.4
			C57,0.1,58.1,0,59.2,0l509.7,0c0.4,0,0.9,0,1.3,0.1c113.7,8.8,179.8,63.3,209,95.1C787,103.6,791.3,114.6,791.3,126L791.3,126z"/>
		<path class="st2" d="M773.4,100.5c-29.6-32.1-93.7-84-203.8-92.5c-0.2,0-0.5,0-0.7,0l-509.7,0c-0.6,0-1.1,0.1-1.6,0.2
			C50.8,9.6,8.3,23,10.2,126C8.3,229,50.8,242.4,57.6,243.9c0.5,0.1,1.1,0.2,1.6,0.2h509.7c0.2,0,0.5,0,0.7,0
			c110.1-8.5,174.2-60.5,203.8-92.5C786.7,137.1,786.7,114.9,773.4,100.5z"/>
		<path class="st2" d="M780.2,100.5c-29.6-32.1-93.7-84-203.8-92.5c-0.2,0-0.5,0-0.7,0L66,7.9c-0.6,0-1.1,0.1-1.6,0.2
			C57.6,9.6,15.1,23,16.9,126C15,229,57.6,242.4,64.4,243.9c0.5,0.1,1.1,0.2,1.6,0.2h509.7c0.2,0,0.5,0,0.7,0
			c110.1-8.5,174.2-60.5,203.8-92.5C793.5,137.1,793.5,114.9,780.2,100.5z"/>
		<path class="st3" d="M569.7,216.1c-7.7,1.1-15.6,2-23.8,2.6c-0.2,0-0.5,0-0.7,0H35.5c-0.6,0-1.1-0.1-1.6-0.2
			c-1.4-0.3-4.2-1.1-7.8-3c12.2,22.8,27.6,27.5,31.5,28.4c0.5,0.1,1.1,0.2,1.6,0.2h509.7c0.2,0,0.5,0,0.7,0
			c8.2-0.6,16.1-1.5,23.8-2.6c0.3-0.4,8.8-12.4,16.7-33.5c14.7-39.2,27.6-109.9-16.7-197.3c-4.2-0.6-8.5-1.2-12.9-1.6
			C629.9,130.9,570.4,215,569.7,216.1L569.7,216.1z"/>
		<path class="st4" d="M633.8,190.5c0,0,24.5-73.4,0-127.9C633.8,62.6,683.1,123.9,633.8,190.5z"/>
		<path class="st5" d="M593.3,241.4c95.6-13.5,152.7-60.2,180-89.9c13.3-14.4,13.3-36.6,0-51C746,70.8,689,24.1,593.3,10.6
			C661.5,145.2,594.2,240.3,593.3,241.4L593.3,241.4z"/>
		<g class="st6">
			<path class="st7" d="M762.4,94.5c13.3,14.4,13.3,36.6,0,51c-25.8,28-77.9,71.1-163.8,87.3c-3,5.5-5.1,8.4-5.3,8.6
				c95.6-13.5,152.7-60.2,180-89.9c13.3-14.4,13.3-36.6,0-51c-15.5-16.8-40.5-39-76.5-57.6C727.1,60.1,748.5,79.5,762.4,94.5
				L762.4,94.5z"/>
		</g>
		<path class="st8" d="M585.8,9.6c63.5,127.1,9,219.5,0.3,232.8l7.2-1c0.1-0.2,2.2-3.2,5.3-8.6c14.7-26.3,51.2-110.7-5.3-222.3"/>
		<path class="st7" d="M638.3,190c0,0,28.5-60.4,0-127.9C638.3,62,687.6,123.3,638.3,190z"/>
		<path class="st9" d="M754.2,126h-80.8"/>
		<path class="st9" d="M737,120l-63.6-5.2"/>
		<path class="st9" d="M737,132l-63.6,5.2"/>
		<path class="st10" d="M57.6,8.1C50.8,9.6,8.3,23,10.2,126C8.3,229,50.8,242.4,57.6,243.9c0.5,0.1,1.1,0.2,1.6,0.2H66
			c-0.6,0-1.1-0.1-1.6-0.2C57.6,242.4,15.1,229,16.9,126C15.1,23,57.6,9.6,64.4,8.1C64.9,8,65.4,8,66,8h-6.8C58.7,8,58.1,8,57.6,8.1
			z"/>
		<path class="st10" d="M773.4,100.5c13.3,14.4,13.3,36.6,0,51c-29.6,32.1-93.7,84-203.8,92.5c-0.2,0-0.5,0-0.7,0h6.8
			c0.2,0,0.5,0,0.7,0c110.1-8.5,174.2-60.5,203.8-92.5c13.3-14.4,13.3-36.6,0-51c-29.6-32.1-93.7-84-203.8-92.5c-0.2,0-0.5,0-0.7,0
			h-6.8c0.2,0,0.5,0,0.7,0C679.7,16.5,743.8,68.4,773.4,100.5z"/>
	</g>
</g>
<g>
	<defs>
		<rect id="SVGID_00000058572385592710011680000000919760486899108484_" x="528" y="154.5" width="67" height="67"/>
	</defs>
	<clipPath id="SVGID_00000142865926508302567660000013849973347368357013_">
		<use xlink:href="#SVGID_00000058572385592710011680000000919760486899108484_"  style="overflow:visible;"/>
	</clipPath>
	<g style="clip-path:url(#SVGID_00000142865926508302567660000013849973347368357013_);">
		<path class="st3" d="M595,211.8v-47.6c0-5.3-4.4-9.7-9.9-9.7h-31.8c-5.4,0-9.9,4.3-9.9,9.7v47.6c0,5.3,4.4,9.7,9.9,9.7h31.8
			C590.6,221.5,595,217.2,595,211.8z"/>
		<path class="st12" d="M586.7,211.3v-46.6c0-5.3-4.4-9.7-9.9-9.7h-31.8c-5.4,0-9.9,4.3-9.9,9.7v46.6c0,5.3,4.4,9.7,9.9,9.7h31.8
			C582.3,220.9,586.7,216.6,586.7,211.3z"/>
		<path class="st12" d="M553.1,188c0-8.8-5.5-15.9-12.3-15.9c-6.8,0-12.3,7.1-12.3,15.9s5.5,15.9,12.3,15.9
			C547.6,203.8,553.1,196.7,553.1,188z"/>
		<path class="st13" d="M575.1,212.5v-49.1c0-1.8-1.5-3.2-3.3-3.2H561c-1.8,0-3.3,1.4-3.3,3.2v49.1c0,1.8,1.5,3.2,3.3,3.2h10.8
			C573.6,215.8,575.1,214.3,575.1,212.5z"/>
		<path class="st13" d="M540.8,192.1c-1,0-1.9-0.9-2.4-2.2c-0.2-0.6-0.3-1.3-0.3-2c0-2.3,1.2-4.2,2.7-4.2c1.5,0,2.7,1.9,2.7,4.2
			C543.5,190.3,542.3,192.1,540.8,192.1L540.8,192.1z"/>
		<path class="st13" d="M540.8,200.1c-4.7,0-8.6-4.4-9.3-10.2c-0.1-0.6-0.1-1.3-0.1-1.9c0-6.7,4.2-12.2,9.4-12.2
			c5.2,0,9.4,5.4,9.4,12.2C550.2,194.7,546,200.1,540.8,200.1L540.8,200.1z"/>
		<path class="st13" d="M539.4,184.1V176"/>
		<path class="st13" d="M542.2,184.4V176"/>
		<path class="st13" d="M539.4,199.6v-8.1"/>
		<path class="st13" d="M542.2,200v-8.5"/>
		<path class="st13" d="M530.9,186.3h7.4"/>
		<path class="st13" d="M530.9,189.4h7.4"/>
		<path class="st13" d="M542.5,183.8h2.9c1.3,0,2.4,1,2.4,2.2v3.9c0,1.2-1.1,2.2-2.4,2.2h-2.9"/>
	</g>
</g>
<g>
	<defs>
		<rect id="SVGID_00000050649482601939705380000013310679735612018320_" x="288" y="33.5" width="68.2" height="87.5"/>
	</defs>
	<clipPath id="SVGID_00000137127294584918669220000017508239738744684434_">
		<use xlink:href="#SVGID_00000050649482601939705380000013310679735612018320_"  style="overflow:visible;"/>
	</clipPath>
	<g style="clip-path:url(#SVGID_00000137127294584918669220000017508239738744684434_);">
		<path class="st3" d="M331.5,41.6v72.1c0,4.1,3.2,7.3,7.2,7.3H349c4,0,7.2-3.3,7.2-7.3V41.6c0-4.1-3.2-7.3-7.2-7.3h-10.3
			C334.7,34.2,331.5,37.5,331.5,41.6z"/>
		<path class="st2" d="M338.5,38.6c-8,2.5-14,12.8-14,25.2v26.6c0,12.4,6,22.7,14,25.2"/>
		<path class="st2" d="M346.8,38.6v77.4h-47.2c-6.2,0-11.1-5.1-11.1-11.4V50c0-6.3,5-11.4,11.1-11.4H346.8L346.8,38.6z"/>
		<path class="st2" d="M322.1,111.2c-2.5,0-4.4,2-4.4,4.6c0,2.5,2,4.6,4.4,4.6h20.3c2.5,0,4.4-2,4.4-4.6c0-2.5-2-4.6-4.4-4.6H322.1z
			"/>
		<path class="st2" d="M322.1,34c-2.5,0-4.4,2-4.4,4.6s2,4.6,4.4,4.6h20.3c2.5,0,4.4-2,4.4-4.6s-2-4.6-4.4-4.6H322.1z"/>
		<path class="st15" d="M338.6,38.5c-8,2.5-14,12.8-14,25.2v26.6c0,12.4,6,22.7,14,25.2"/>
		<path class="st15" d="M346.9,38.5v77.4h-47.3c-6.1,0-11.1-5.1-11.1-11.4V49.9c0-6.3,5-11.4,11.1-11.4H346.9z"/>
		<path class="st16" d="M322.1,111.1c-2.5,0-4.4,2-4.4,4.6s2,4.6,4.4,4.6h20.3c2.5,0,4.4-2,4.4-4.6s-2-4.6-4.4-4.6H322.1z"/>
		<path class="st16" d="M322.1,33.9c-2.5,0-4.4,2-4.4,4.6s2,4.6,4.4,4.6h20.3c2.5,0,4.4-2,4.4-4.6s-2-4.6-4.4-4.6H322.1z"/>
	</g>
</g>
<g>
	<defs>
		<rect id="SVGID_00000170962980217591282040000013715025531966928063_" x="368" y="33.5" width="68.2" height="87.5"/>
	</defs>
	<clipPath id="SVGID_00000134236672856614709470000000677909863098199684_">
		<use xlink:href="#SVGID_00000170962980217591282040000013715025531966928063_"  style="overflow:visible;"/>
	</clipPath>
	<g style="clip-path:url(#SVGID_00000134236672856614709470000000677909863098199684_);">
		<path class="st3" d="M411.5,41.6v72.1c0,4.1,3.2,7.3,7.2,7.3H429c4,0,7.2-3.3,7.2-7.3V41.6c0-4.1-3.2-7.3-7.2-7.3h-10.3
			C414.7,34.2,411.5,37.5,411.5,41.6z"/>
		<path class="st2" d="M418.5,38.6c-8,2.5-14,12.8-14,25.2v26.6c0,12.4,6,22.7,14,25.2"/>
		<path class="st2" d="M426.8,38.6v77.4h-47.2c-6.2,0-11.1-5.1-11.1-11.4V50c0-6.3,5-11.4,11.1-11.4H426.8L426.8,38.6z"/>
		<path class="st2" d="M402.1,111.2c-2.5,0-4.4,2-4.4,4.6c0,2.5,2,4.6,4.4,4.6h20.3c2.5,0,4.4-2,4.4-4.6c0-2.5-2-4.6-4.4-4.6H402.1z
			"/>
		<path class="st2" d="M402.1,34c-2.5,0-4.4,2-4.4,4.6s2,4.6,4.4,4.6h20.3c2.5,0,4.4-2,4.4-4.6s-2-4.6-4.4-4.6H402.1z"/>
		<path class="st15" d="M418.6,38.5c-8,2.5-14,12.8-14,25.2v26.6c0,12.4,6,22.7,14,25.2"/>
		<path class="st15" d="M426.9,38.5v77.4h-47.3c-6.1,0-11.1-5.1-11.1-11.4V49.9c0-6.3,5-11.4,11.1-11.4H426.9z"/>
		<path class="st16" d="M402.1,111.1c-2.5,0-4.4,2-4.4,4.6s2,4.6,4.4,4.6h20.3c2.5,0,4.4-2,4.4-4.6s-2-4.6-4.4-4.6H402.1z"/>
		<path class="st16" d="M402.1,33.9c-2.5,0-4.4,2-4.4,4.6s2,4.6,4.4,4.6h20.3c2.5,0,4.4-2,4.4-4.6s-2-4.6-4.4-4.6H402.1z"/>
	</g>
</g>
<g>
	<defs>
		<rect id="SVGID_00000160149253055168437860000006495288265444479142_" x="207" y="33.5" width="69.1" height="87.5"/>
	</defs>
	<clipPath id="SVGID_00000169553826957714048350000015238651443882227881_">
		<use xlink:href="#SVGID_00000160149253055168437860000006495288265444479142_"  style="overflow:visible;"/>
	</clipPath>
	<g style="clip-path:url(#SVGID_00000169553826957714048350000015238651443882227881_);">
		<path class="st3" d="M251.1,41.6v72.1c0,4.1,3.2,7.3,7.3,7.3h10.4c4,0,7.3-3.3,7.3-7.3V41.6c0-4.1-3.3-7.3-7.3-7.3h-10.4
			C254.4,34.2,251.1,37.5,251.1,41.6z"/>
		<path class="st2" d="M258.2,38.6C250.1,41,244,51.4,244,63.8v26.6c0,12.4,6.1,22.7,14.2,25.2"/>
		<path class="st2" d="M266.6,38.6v77.4h-47.9c-6.2,0-11.3-5.1-11.3-11.4V50c0-6.3,5.1-11.4,11.3-11.4H266.6L266.6,38.6z"/>
		<path class="st2" d="M241.5,111.2c-2.5,0-4.5,2-4.5,4.6c0,2.5,2,4.6,4.5,4.6h20.6c2.5,0,4.5-2,4.5-4.6c0-2.5-2-4.6-4.5-4.6H241.5z
			"/>
		<path class="st2" d="M241.5,34c-2.5,0-4.5,2-4.5,4.6s2,4.6,4.5,4.6h20.6c2.5,0,4.5-2,4.5-4.6s-2-4.6-4.5-4.6H241.5z"/>
		<path class="st15" d="M258.3,38.5c-8.1,2.5-14.2,12.8-14.2,25.2v26.6c0,12.4,6.1,22.7,14.2,25.2"/>
		<path class="st15" d="M266.7,38.5v77.4h-47.9c-6.2,0-11.3-5.1-11.3-11.4V49.9c0-6.3,5.1-11.4,11.3-11.4H266.7z"/>
		<path class="st16" d="M241.6,111.1c-2.5,0-4.5,2-4.5,4.6s2,4.6,4.5,4.6h20.6c2.5,0,4.5-2,4.5-4.6s-2-4.6-4.5-4.6H241.6z"/>
		<path class="st16" d="M241.6,33.9c-2.5,0-4.5,2-4.5,4.6s2,4.6,4.5,4.6h20.6c2.5,0,4.5-2,4.5-4.6s-2-4.6-4.5-4.6H241.6z"/>
	</g>
</g>
<g>
	<defs>
		<rect id="SVGID_00000153697187564108160770000003646265738645920690_" x="126" y="33.5" width="69.1" height="87.5"/>
	</defs>
	<clipPath id="SVGID_00000170988898620435149740000016032547444741266831_">
		<use xlink:href="#SVGID_00000153697187564108160770000003646265738645920690_"  style="overflow:visible;"/>
	</clipPath>
	<g style="clip-path:url(#SVGID_00000170988898620435149740000016032547444741266831_);">
		<path class="st3" d="M170.1,41.6v72.1c0,4.1,3.3,7.3,7.3,7.3h10.4c4,0,7.3-3.3,7.3-7.3V41.6c0-4.1-3.3-7.3-7.3-7.3h-10.4
			C173.4,34.2,170.1,37.5,170.1,41.6z"/>
		<path class="st2" d="M177.2,38.6C169.1,41,163,51.4,163,63.8v26.6c0,12.4,6.1,22.7,14.2,25.2"/>
		<path class="st2" d="M185.6,38.6v77.4h-47.9c-6.2,0-11.3-5.1-11.3-11.4V50c0-6.3,5.1-11.4,11.3-11.4H185.6L185.6,38.6z"/>
		<path class="st2" d="M160.5,111.2c-2.5,0-4.5,2-4.5,4.6c0,2.5,2,4.6,4.5,4.6h20.6c2.5,0,4.5-2,4.5-4.6c0-2.5-2-4.6-4.5-4.6H160.5z
			"/>
		<path class="st2" d="M160.5,34c-2.5,0-4.5,2-4.5,4.6s2,4.6,4.5,4.6h20.6c2.5,0,4.5-2,4.5-4.6s-2-4.6-4.5-4.6H160.5z"/>
		<path class="st15" d="M177.3,38.5c-8.1,2.5-14.2,12.8-14.2,25.2v26.6c0,12.4,6.1,22.7,14.2,25.2"/>
		<path class="st15" d="M185.7,38.5v77.4h-47.9c-6.2,0-11.3-5.1-11.3-11.4V49.9c0-6.3,5.1-11.4,11.3-11.4H185.7z"/>
		<path class="st16" d="M160.6,111.1c-2.5,0-4.5,2-4.5,4.6s2,4.6,4.5,4.6h20.6c2.5,0,4.5-2,4.5-4.6s-2-4.6-4.5-4.6H160.6z"/>
		<path class="st16" d="M160.6,33.9c-2.5,0-4.5,2-4.5,4.6s2,4.6,4.5,4.6h20.6c2.5,0,4.5-2,4.5-4.6s-2-4.6-4.5-4.6H160.6z"/>
	</g>
</g>
<g>
	<defs>
		<rect id="SVGID_00000122721425803835244920000013198577647116895670_" x="207" y="134" width="69.1" height="87.5"/>
	</defs>
	<clipPath id="SVGID_00000066506017731697693050000010900777450934384788_">
		<use xlink:href="#SVGID_00000122721425803835244920000013198577647116895670_"  style="overflow:visible;"/>
	</clipPath>
	<g style="clip-path:url(#SVGID_00000066506017731697693050000010900777450934384788_);">
		<path class="st3" d="M251.1,142.1v72.1c0,4.1,3.2,7.3,7.3,7.3h10.4c4,0,7.3-3.3,7.3-7.3v-72.1c0-4.1-3.3-7.3-7.3-7.3h-10.4
			C254.4,134.8,251.1,138,251.1,142.1z"/>
		<path class="st2" d="M258.2,139.1c-8.1,2.5-14.2,12.8-14.2,25.2v26.6c0,12.4,6.1,22.7,14.2,25.2"/>
		<path class="st2" d="M266.6,139.1v77.4h-47.9c-6.2,0-11.3-5.1-11.3-11.4v-54.5c0-6.3,5.1-11.4,11.3-11.4H266.6L266.6,139.1z"/>
		<path class="st2" d="M241.5,211.7c-2.5,0-4.5,2-4.5,4.6c0,2.5,2,4.6,4.5,4.6h20.6c2.5,0,4.5-2,4.5-4.6c0-2.5-2-4.6-4.5-4.6H241.5z
			"/>
		<path class="st2" d="M241.5,134.5c-2.5,0-4.5,2-4.5,4.6c0,2.5,2,4.6,4.5,4.6h20.6c2.5,0,4.5-2,4.5-4.6c0-2.5-2-4.6-4.5-4.6H241.5z
			"/>
		<path class="st15" d="M258.3,139c-8.1,2.5-14.2,12.8-14.2,25.2v26.6c0,12.4,6.1,22.7,14.2,25.2"/>
		<path class="st15" d="M266.7,139v77.4h-47.9c-6.2,0-11.3-5.1-11.3-11.4v-54.5c0-6.3,5.1-11.4,11.3-11.4H266.7z"/>
		<path class="st16" d="M241.6,211.6c-2.5,0-4.5,2-4.5,4.6c0,2.5,2,4.6,4.5,4.6h20.6c2.5,0,4.5-2,4.5-4.6c0-2.5-2-4.6-4.5-4.6H241.6
			z"/>
		<path class="st16" d="M241.6,134.4c-2.5,0-4.5,2-4.5,4.6c0,2.5,2,4.6,4.5,4.6h20.6c2.5,0,4.5-2,4.5-4.6c0-2.5-2-4.6-4.5-4.6H241.6
			z"/>
	</g>
</g>
<g>
	<defs>
		<rect id="SVGID_00000026879350872546391550000002338833158053416329_" x="287" y="134" width="69.1" height="87.5"/>
	</defs>
	<clipPath id="SVGID_00000044169041074552607170000012619700002363680186_">
		<use xlink:href="#SVGID_00000026879350872546391550000002338833158053416329_"  style="overflow:visible;"/>
	</clipPath>
	<g style="clip-path:url(#SVGID_00000044169041074552607170000012619700002363680186_);">
		<path class="st3" d="M331.1,142.1v72.1c0,4.1,3.2,7.3,7.3,7.3h10.4c4,0,7.3-3.3,7.3-7.3v-72.1c0-4.1-3.3-7.3-7.3-7.3h-10.4
			C334.4,134.8,331.1,138,331.1,142.1z"/>
		<path class="st2" d="M338.2,139.1c-8.1,2.5-14.2,12.8-14.2,25.2v26.6c0,12.4,6.1,22.7,14.2,25.2"/>
		<path class="st2" d="M346.6,139.1v77.4h-47.9c-6.2,0-11.3-5.1-11.3-11.4v-54.5c0-6.3,5.1-11.4,11.3-11.4H346.6L346.6,139.1z"/>
		<path class="st2" d="M321.5,211.7c-2.5,0-4.5,2-4.5,4.6c0,2.5,2,4.6,4.5,4.6h20.6c2.5,0,4.5-2,4.5-4.6c0-2.5-2-4.6-4.5-4.6H321.5z
			"/>
		<path class="st2" d="M321.5,134.5c-2.5,0-4.5,2-4.5,4.6c0,2.5,2,4.6,4.5,4.6h20.6c2.5,0,4.5-2,4.5-4.6c0-2.5-2-4.6-4.5-4.6H321.5z
			"/>
		<path class="st15" d="M338.3,139c-8.1,2.5-14.2,12.8-14.2,25.2v26.6c0,12.4,6.1,22.7,14.2,25.2"/>
		<path class="st15" d="M346.7,139v77.4h-47.9c-6.2,0-11.3-5.1-11.3-11.4v-54.5c0-6.3,5.1-11.4,11.3-11.4H346.7z"/>
		<path class="st16" d="M321.6,211.6c-2.5,0-4.5,2-4.5,4.6c0,2.5,2,4.6,4.5,4.6h20.6c2.5,0,4.5-2,4.5-4.6c0-2.5-2-4.6-4.5-4.6H321.6
			z"/>
		<path class="st16" d="M321.6,134.4c-2.5,0-4.5,2-4.5,4.6c0,2.5,2,4.6,4.5,4.6h20.6c2.5,0,4.5-2,4.5-4.6c0-2.5-2-4.6-4.5-4.6H321.6
			z"/>
	</g>
</g>
<g>
	<defs>
		<rect id="SVGID_00000125583417321234439280000011773055678289922188_" x="367" y="134" width="69.1" height="87.5"/>
	</defs>
	<clipPath id="SVGID_00000183966988823199581060000003644885105577573793_">
		<use xlink:href="#SVGID_00000125583417321234439280000011773055678289922188_"  style="overflow:visible;"/>
	</clipPath>
	<g style="clip-path:url(#SVGID_00000183966988823199581060000003644885105577573793_);">
		<path class="st3" d="M411.1,142.1v72.1c0,4.1,3.2,7.3,7.3,7.3h10.4c4,0,7.3-3.3,7.3-7.3v-72.1c0-4.1-3.3-7.3-7.3-7.3h-10.4
			C414.4,134.8,411.1,138,411.1,142.1z"/>
		<path class="st2" d="M418.2,139.1c-8.1,2.5-14.2,12.8-14.2,25.2v26.6c0,12.4,6.1,22.7,14.2,25.2"/>
		<path class="st2" d="M426.6,139.1v77.4h-47.9c-6.2,0-11.3-5.1-11.3-11.4v-54.5c0-6.3,5.1-11.4,11.3-11.4H426.6L426.6,139.1z"/>
		<path class="st2" d="M401.5,211.7c-2.5,0-4.5,2-4.5,4.6c0,2.5,2,4.6,4.5,4.6h20.6c2.5,0,4.5-2,4.5-4.6c0-2.5-2-4.6-4.5-4.6H401.5z
			"/>
		<path class="st2" d="M401.5,134.5c-2.5,0-4.5,2-4.5,4.6c0,2.5,2,4.6,4.5,4.6h20.6c2.5,0,4.5-2,4.5-4.6c0-2.5-2-4.6-4.5-4.6H401.5z
			"/>
		<path class="st15" d="M418.3,139c-8.1,2.5-14.2,12.8-14.2,25.2v26.6c0,12.4,6.1,22.7,14.2,25.2"/>
		<path class="st15" d="M426.7,139v77.4h-47.9c-6.2,0-11.3-5.1-11.3-11.4v-54.5c0-6.3,5.1-11.4,11.3-11.4H426.7z"/>
		<path class="st16" d="M401.6,211.6c-2.5,0-4.5,2-4.5,4.6c0,2.5,2,4.6,4.5,4.6h20.6c2.5,0,4.5-2,4.5-4.6c0-2.5-2-4.6-4.5-4.6H401.6
			z"/>
		<path class="st16" d="M401.6,134.4c-2.5,0-4.5,2-4.5,4.6c0,2.5,2,4.6,4.5,4.6h20.6c2.5,0,4.5-2,4.5-4.6c0-2.5-2-4.6-4.5-4.6H401.6
			z"/>
	</g>
</g>
<g>
	<defs>
		<rect id="SVGID_00000163788252688138718560000017864737917810480273_" x="126" y="134" width="69.1" height="87.5"/>
	</defs>
	<clipPath id="SVGID_00000183955682314324731580000012087571758716415894_">
		<use xlink:href="#SVGID_00000163788252688138718560000017864737917810480273_"  style="overflow:visible;"/>
	</clipPath>
	<g style="clip-path:url(#SVGID_00000183955682314324731580000012087571758716415894_);">
		<path class="st3" d="M170.1,142.1v72.1c0,4.1,3.3,7.3,7.3,7.3h10.4c4,0,7.3-3.3,7.3-7.3v-72.1c0-4.1-3.3-7.3-7.3-7.3h-10.4
			C173.4,134.8,170.1,138,170.1,142.1z"/>
		<path class="st2" d="M177.2,139.1c-8.1,2.5-14.2,12.8-14.2,25.2v26.6c0,12.4,6.1,22.7,14.2,25.2"/>
		<path class="st2" d="M185.6,139.1v77.4h-47.9c-6.2,0-11.3-5.1-11.3-11.4v-54.5c0-6.3,5.1-11.4,11.3-11.4H185.6L185.6,139.1z"/>
		<path class="st2" d="M160.5,211.7c-2.5,0-4.5,2-4.5,4.6c0,2.5,2,4.6,4.5,4.6h20.6c2.5,0,4.5-2,4.5-4.6c0-2.5-2-4.6-4.5-4.6H160.5z
			"/>
		<path class="st2" d="M160.5,134.5c-2.5,0-4.5,2-4.5,4.6c0,2.5,2,4.6,4.5,4.6h20.6c2.5,0,4.5-2,4.5-4.6c0-2.5-2-4.6-4.5-4.6H160.5z
			"/>
		<path class="st15" d="M177.3,139c-8.1,2.5-14.2,12.8-14.2,25.2v26.6c0,12.4,6.1,22.7,14.2,25.2"/>
		<path class="st15" d="M185.7,139v77.4h-47.9c-6.2,0-11.3-5.1-11.3-11.4v-54.5c0-6.3,5.1-11.4,11.3-11.4H185.7z"/>
		<path class="st16" d="M160.6,211.6c-2.5,0-4.5,2-4.5,4.6c0,2.5,2,4.6,4.5,4.6h20.6c2.5,0,4.5-2,4.5-4.6c0-2.5-2-4.6-4.5-4.6H160.6
			z"/>
		<path class="st16" d="M160.6,134.4c-2.5,0-4.5,2-4.5,4.6c0,2.5,2,4.6,4.5,4.6h20.6c2.5,0,4.5-2,4.5-4.6c0-2.5-2-4.6-4.5-4.6H160.6
			z"/>
	</g>
</g>
<g>
	<defs>
		<rect id="SVGID_00000163782846341341699740000005413441455566981026_" x="45" y="33.5" width="69.1" height="87.5"/>
	</defs>
	<clipPath id="SVGID_00000124158883042051380380000007955200457434028174_">
		<use xlink:href="#SVGID_00000163782846341341699740000005413441455566981026_"  style="overflow:visible;"/>
	</clipPath>
	<g style="clip-path:url(#SVGID_00000124158883042051380380000007955200457434028174_);">
		<path class="st3" d="M89.1,41.6v72.1c0,4.1,3.3,7.3,7.3,7.3h10.4c4,0,7.3-3.3,7.3-7.3V41.6c0-4.1-3.3-7.3-7.3-7.3H96.4
			C92.4,34.2,89.1,37.5,89.1,41.6z"/>
		<path class="st2" d="M96.2,38.6C88.1,41,82,51.4,82,63.8v26.6c0,12.4,6.1,22.7,14.2,25.2"/>
		<path class="st2" d="M104.6,38.6v77.4H56.7c-6.2,0-11.3-5.1-11.3-11.4V50c0-6.3,5.1-11.4,11.3-11.4H104.6L104.6,38.6z"/>
		<path class="st2" d="M79.5,111.2c-2.5,0-4.5,2-4.5,4.6c0,2.5,2,4.6,4.5,4.6h20.6c2.5,0,4.5-2,4.5-4.6c0-2.5-2-4.6-4.5-4.6H79.5z"
			/>
		<path class="st2" d="M79.5,34c-2.5,0-4.5,2-4.5,4.6s2,4.6,4.5,4.6h20.6c2.5,0,4.5-2,4.5-4.6s-2-4.6-4.5-4.6H79.5z"/>
		<path class="st15" d="M96.3,38.5C88.1,40.9,82,51.3,82,63.7v26.6c0,12.4,6.1,22.7,14.2,25.2"/>
		<path class="st15" d="M104.7,38.5v77.4H56.8c-6.2,0-11.3-5.1-11.3-11.4V49.9c0-6.3,5.1-11.4,11.3-11.4H104.7z"/>
		<path class="st16" d="M79.6,111.1c-2.5,0-4.5,2-4.5,4.6s2,4.6,4.5,4.6h20.6c2.5,0,4.5-2,4.5-4.6s-2-4.6-4.5-4.6H79.6z"/>
		<path class="st16" d="M79.6,33.9c-2.5,0-4.5,2-4.5,4.6s2,4.6,4.5,4.6h20.6c2.5,0,4.5-2,4.5-4.6s-2-4.6-4.5-4.6H79.6z"/>
	</g>
</g>
<g>
	<defs>
		<rect id="SVGID_00000005233098443605720320000002541494818580694687_" x="45" y="134" width="69.1" height="87.5"/>
	</defs>
	<clipPath id="SVGID_00000153690624421520314170000007897236790517260726_">
		<use xlink:href="#SVGID_00000005233098443605720320000002541494818580694687_"  style="overflow:visible;"/>
	</clipPath>
	<g style="clip-path:url(#SVGID_00000153690624421520314170000007897236790517260726_);">
		<path class="st3" d="M89.1,142.1v72.1c0,4.1,3.3,7.3,7.3,7.3h10.4c4,0,7.3-3.3,7.3-7.3v-72.1c0-4.1-3.3-7.3-7.3-7.3H96.4
			C92.4,134.8,89.1,138,89.1,142.1z"/>
		<path class="st2" d="M96.2,139.1c-8.1,2.5-14.2,12.8-14.2,25.2v26.6c0,12.4,6.1,22.7,14.2,25.2"/>
		<path class="st2" d="M104.6,139.1v77.4H56.7c-6.2,0-11.3-5.1-11.3-11.4v-54.5c0-6.3,5.1-11.4,11.3-11.4H104.6L104.6,139.1z"/>
		<path class="st2" d="M79.5,211.7c-2.5,0-4.5,2-4.5,4.6c0,2.5,2,4.6,4.5,4.6h20.6c2.5,0,4.5-2,4.5-4.6c0-2.5-2-4.6-4.5-4.6H79.5z"
			/>
		<path class="st2" d="M79.5,134.5c-2.5,0-4.5,2-4.5,4.6c0,2.5,2,4.6,4.5,4.6h20.6c2.5,0,4.5-2,4.5-4.6c0-2.5-2-4.6-4.5-4.6H79.5z"
			/>
		<path class="st15" d="M96.3,139c-8.1,2.5-14.2,12.8-14.2,25.2v26.6c0,12.4,6.1,22.7,14.2,25.2"/>
		<path class="st15" d="M104.7,139v77.4H56.8c-6.2,0-11.3-5.1-11.3-11.4v-54.5c0-6.3,5.1-11.4,11.3-11.4H104.7z"/>
		<path class="st16" d="M79.6,211.6c-2.5,0-4.5,2-4.5,4.6c0,2.5,2,4.6,4.5,4.6h20.6c2.5,0,4.5-2,4.5-4.6c0-2.5-2-4.6-4.5-4.6H79.6z"
			/>
		<path class="st16" d="M79.6,134.4c-2.5,0-4.5,2-4.5,4.6c0,2.5,2,4.6,4.5,4.6h20.6c2.5,0,4.5-2,4.5-4.6c0-2.5-2-4.6-4.5-4.6H79.6z"
			/>
	</g>
</g>
<g>
	<defs>
		<rect id="SVGID_00000086675583131152563380000007022920089567031987_" x="449" y="33.5" width="68.2" height="87.5"/>
	</defs>
	<clipPath id="SVGID_00000045608177954460321140000013688991057491140500_">
		<use xlink:href="#SVGID_00000086675583131152563380000007022920089567031987_"  style="overflow:visible;"/>
	</clipPath>
	<g style="clip-path:url(#SVGID_00000045608177954460321140000013688991057491140500_);">
		<path class="st3" d="M492.5,41.6v72.1c0,4.1,3.2,7.3,7.2,7.3H510c4,0,7.2-3.3,7.2-7.3V41.6c0-4.1-3.2-7.3-7.2-7.3h-10.3
			C495.7,34.2,492.5,37.5,492.5,41.6z"/>
		<path class="st2" d="M499.5,38.6c-8,2.5-14,12.8-14,25.2v26.6c0,12.4,6,22.7,14,25.2"/>
		<path class="st2" d="M507.8,38.6v77.4h-47.2c-6.2,0-11.1-5.1-11.1-11.4V50c0-6.3,5-11.4,11.1-11.4H507.8L507.8,38.6z"/>
		<path class="st2" d="M483.1,111.2c-2.5,0-4.4,2-4.4,4.6c0,2.5,2,4.6,4.4,4.6h20.3c2.5,0,4.4-2,4.4-4.6c0-2.5-2-4.6-4.4-4.6H483.1z
			"/>
		<path class="st2" d="M483.1,34c-2.5,0-4.4,2-4.4,4.6s2,4.6,4.4,4.6h20.3c2.5,0,4.4-2,4.4-4.6s-2-4.6-4.4-4.6H483.1z"/>
		<path class="st15" d="M499.6,38.5c-8,2.5-14,12.8-14,25.2v26.6c0,12.4,6,22.7,14,25.2"/>
		<path class="st15" d="M507.9,38.5v77.4h-47.3c-6.1,0-11.1-5.1-11.1-11.4V49.9c0-6.3,5-11.4,11.1-11.4H507.9z"/>
		<path class="st16" d="M483.1,111.1c-2.5,0-4.4,2-4.4,4.6s2,4.6,4.4,4.6h20.3c2.5,0,4.4-2,4.4-4.6s-2-4.6-4.4-4.6H483.1z"/>
		<path class="st16" d="M483.1,33.9c-2.5,0-4.4,2-4.4,4.6s2,4.6,4.4,4.6h20.3c2.5,0,4.4-2,4.4-4.6s-2-4.6-4.4-4.6H483.1z"/>
	</g>
</g>
<g>
	<defs>
		<rect id="SVGID_00000182519832257871633910000016814187441669112716_" x="448" y="134" width="69.1" height="87.5"/>
	</defs>
	<clipPath id="SVGID_00000015349592822684591530000013333293214776440979_">
		<use xlink:href="#SVGID_00000182519832257871633910000016814187441669112716_"  style="overflow:visible;"/>
	</clipPath>
	<g style="clip-path:url(#SVGID_00000015349592822684591530000013333293214776440979_);">
		<path class="st3" d="M492.1,142.1v72.1c0,4.1,3.2,7.3,7.3,7.3h10.4c4,0,7.3-3.3,7.3-7.3v-72.1c0-4.1-3.3-7.3-7.3-7.3h-10.4
			C495.4,134.8,492.1,138,492.1,142.1z"/>
		<path class="st2" d="M499.2,139.1c-8.1,2.5-14.2,12.8-14.2,25.2v26.6c0,12.4,6.1,22.7,14.2,25.2"/>
		<path class="st2" d="M507.6,139.1v77.4h-47.9c-6.2,0-11.3-5.1-11.3-11.4v-54.5c0-6.3,5.1-11.4,11.3-11.4H507.6L507.6,139.1z"/>
		<path class="st2" d="M482.5,211.7c-2.5,0-4.5,2-4.5,4.6c0,2.5,2,4.6,4.5,4.6h20.6c2.5,0,4.5-2,4.5-4.6c0-2.5-2-4.6-4.5-4.6H482.5z
			"/>
		<path class="st2" d="M482.5,134.5c-2.5,0-4.5,2-4.5,4.6c0,2.5,2,4.6,4.5,4.6h20.6c2.5,0,4.5-2,4.5-4.6c0-2.5-2-4.6-4.5-4.6H482.5z
			"/>
		<path class="st15" d="M499.3,139c-8.1,2.5-14.2,12.8-14.2,25.2v26.6c0,12.4,6.1,22.7,14.2,25.2"/>
		<path class="st15" d="M507.7,139v77.4h-47.9c-6.2,0-11.3-5.1-11.3-11.4v-54.5c0-6.3,5.1-11.4,11.3-11.4H507.7z"/>
		<path class="st16" d="M482.6,211.6c-2.5,0-4.5,2-4.5,4.6c0,2.5,2,4.6,4.5,4.6h20.6c2.5,0,4.5-2,4.5-4.6c0-2.5-2-4.6-4.5-4.6H482.6
			z"/>
		<path class="st16" d="M482.6,134.4c-2.5,0-4.5,2-4.5,4.6c0,2.5,2,4.6,4.5,4.6h20.6c2.5,0,4.5-2,4.5-4.6c0-2.5-2-4.6-4.5-4.6H482.6
			z"/>
	</g>
</g>
</svg>
