<svg width="40" height="40" viewBox="0 0 40 40" fill="none" xmlns="http://www.w3.org/2000/svg">
<rect x="0.25" y="0.25" width="39.4751" height="39.5" rx="19.7375" stroke="white" stroke-width="0.5"/>
<path d="M28.8779 10H11.096C10.4871 10.0004 9.99353 10.4945 9.99365 11.104V28.897C9.99402 29.5062 10.4879 30.0001 11.097 30H20.6706V22.2656H18.0746V19.2383H20.6706V17.0104C20.6706 14.4268 22.2469 13.0205 24.5501 13.0205C25.6533 13.0205 26.6013 13.1028 26.8777 13.1395V15.8398H25.2894C24.0363 15.8398 23.7936 16.4357 23.7936 17.3102V19.2383H26.7898L26.3994 22.2656H23.7936V30H28.8779C29.4871 30.0001 29.9811 29.5061 29.9812 28.8965C29.9812 28.8964 29.9812 28.8962 29.9812 28.896V11.103C29.981 10.4938 29.487 9.99988 28.8779 10Z" fill="white"/>
</svg>
