<svg width="41" height="40" viewBox="0 0 41 40" fill="none" xmlns="http://www.w3.org/2000/svg">
<rect x="1.2002" y="0.25" width="39.475" height="39.5" rx="19.7375" stroke="white" stroke-width="0.5"/>
<path d="M25.1254 10H16.7499C13.5484 10 10.9438 12.6062 10.9438 15.8097V24.1903C10.9438 27.3938 13.5484 30 16.7499 30H25.1253C28.3268 30 30.9314 27.3938 30.9314 24.1904V15.8097C30.9314 12.6062 28.3268 10 25.1254 10ZM29.3699 24.1903C29.3699 26.5322 27.4658 28.4375 25.1254 28.4375H16.7499C14.4095 28.4375 12.5054 26.5322 12.5054 24.1904V15.8097C12.5054 13.4678 14.4095 11.5625 16.7499 11.5625H25.1253C27.4658 11.5625 29.3699 13.4678 29.3699 15.8097V24.1903Z" fill="white"/>
<path d="M20.9376 14.6104C17.967 14.6104 15.5503 17.0286 15.5503 20.001C15.5503 22.9734 17.967 25.3916 20.9376 25.3916C23.9081 25.3916 26.3248 22.9734 26.3248 20.001C26.3248 17.0286 23.9081 14.6104 20.9376 14.6104ZM20.9376 23.8291C18.8281 23.8291 17.1118 22.1118 17.1118 20.001C17.1118 17.8902 18.8281 16.1729 20.9376 16.1729C23.0471 16.1729 24.7633 17.8902 24.7633 20.001C24.7633 22.1118 23.0471 23.8291 20.9376 23.8291Z" fill="white"/>
<path d="M26.4033 15.3125C26.8348 15.3125 27.1846 14.9627 27.1846 14.5313C27.1846 14.0998 26.8348 13.75 26.4033 13.75C25.9718 13.75 25.6221 14.0998 25.6221 14.5313C25.6221 14.9627 25.9718 15.3125 26.4033 15.3125Z" fill="white"/>
</svg>
