<svg width="143" height="50" viewBox="0 0 143 50" fill="none" xmlns="http://www.w3.org/2000/svg">
<g clip-path="url(#clip0_3437_501)">
<path d="M62.2373 35.7346C61.9541 35.5947 61.8125 35.315 61.8125 34.8954C61.8125 34.266 61.6709 33.1472 61.3877 31.6087L61.246 30.9094L57.2102 30.4199C57.0686 30.9094 56.7853 31.8884 56.5021 33.4269C56.3605 34.4758 56.0773 35.1751 55.7233 35.5248C55.5109 35.7346 55.2276 35.8045 54.8736 35.8045C54.5196 35.8045 54.2364 35.7346 53.9531 35.5947C53.6699 35.4549 53.5283 35.2451 53.5283 34.9653L53.5991 34.8255L53.6699 34.6856C55.4401 29.1612 56.8561 23.6367 57.7766 18.2521C57.7766 18.1821 57.7766 18.0423 57.8474 17.8325C57.8474 17.6227 57.9182 17.343 57.9182 16.9234C57.989 16.1542 58.0598 15.4549 58.2014 15.0353C58.2722 14.5458 58.4847 14.1961 58.6971 13.9863H60.1132C60.4672 13.9863 60.8212 14.0563 61.1044 14.1961C61.3877 14.336 61.5293 14.5458 61.5293 14.8255C61.5293 16.4339 61.8125 18.8814 62.3789 22.1681C62.9454 25.5248 63.2286 27.8325 63.2286 29.1612C63.2286 29.301 63.2994 29.6507 63.441 30.1402C63.5826 30.6297 63.6534 30.9793 63.6534 31.1192C63.6534 31.2591 63.795 31.8884 64.0782 33.0772C64.2907 34.1262 64.4323 34.7556 64.4323 35.1052C64.4323 35.5947 64.2199 35.8744 63.795 36.0143C63.0162 35.9444 62.5913 35.8744 62.2373 35.7346ZM60.8212 28.5318C60.8212 26.5737 60.6088 24.1262 60.184 21.1192L59.7591 17.7626C58.5555 22.8674 57.7766 26.6437 57.3518 29.2311C57.7766 29.4409 58.9803 29.6507 60.9628 29.7206C60.892 29.4409 60.8212 29.0213 60.8212 28.5318Z" fill="#A8CF45"/>
<path d="M83.0541 35.3152V33.2173V31.1194C83.0541 30.0704 82.9833 28.6019 82.7709 26.8536C82.5585 24.8956 82.4168 23.5669 82.4168 22.7977L82.4876 20.7697C82.5585 20.2103 82.5585 19.511 82.5585 18.8117C82.4168 19.0914 81.992 20.5599 81.2132 23.2872C80.4343 25.8746 79.5846 28.3222 78.735 30.5599C77.8853 32.7278 77.2481 33.7767 76.7525 33.7767C76.2568 33.7767 75.832 33.6368 75.478 33.4271C75.1948 33.1473 74.9823 32.8676 74.9823 32.3781C74.9823 31.3991 74.4867 29.441 73.4954 26.2942C72.5042 23.2173 71.6545 20.6998 70.8757 18.7417L70.6632 22.3781C70.4508 25.455 70.3092 28.0424 70.2384 30.0704C70.2384 32.1683 70.2384 33.5669 70.2384 34.2662C70.2384 34.4061 70.2384 34.6159 70.3092 34.7557V35.1753C70.3092 35.525 70.2384 35.8047 70.026 36.0145C69.8136 36.2243 69.4596 36.2942 68.9639 36.2942C68.6807 36.2942 68.3975 36.2243 68.1851 36.0844C67.9727 35.9445 67.8311 35.7347 67.8311 35.525C67.8311 33.3571 68.0435 30.0005 68.4683 25.5949C68.8931 21.1893 69.1055 17.9026 69.1055 15.6648C68.9639 15.455 68.8931 15.2452 68.8931 15.0355C68.8931 14.7557 69.0347 14.5459 69.3888 14.4061C69.672 14.2662 70.0968 14.1963 70.5216 14.1963C70.8757 14.1963 71.5129 15.2452 72.5042 17.2732C73.4246 19.3012 74.4159 21.6089 75.4072 24.1963C76.3984 26.7837 76.9649 28.6019 77.2481 29.7907C77.4605 29.2313 77.6729 28.6718 77.8145 28.1823L78.0269 27.4131C78.8766 24.4061 79.7971 21.6788 80.6467 19.2313C81.1424 17.7627 81.638 16.5739 82.1336 15.7348C82.6293 14.8257 83.0541 14.4061 83.4789 14.4061C83.8329 14.4061 84.187 14.476 84.541 14.6159C84.8242 14.7557 85.0366 14.9655 85.0366 15.2452C85.0366 16.7837 85.1074 19.1613 85.249 22.2382C85.4615 25.1054 85.5323 27.3431 85.5323 28.9515L85.4614 30.6998L85.3906 32.448C85.3906 32.7278 85.4615 33.0774 85.5323 33.6368L85.6739 34.7557C85.6739 34.9655 85.7447 35.1054 85.7447 35.1753C85.7447 35.3152 85.7447 35.3152 85.7447 35.3851C85.8863 35.6648 85.9571 35.8746 85.9571 36.0145C85.9571 36.3641 85.8155 36.7138 85.5323 36.9935C85.249 37.2732 84.9658 37.4131 84.541 37.4131C83.4789 37.3431 83.0541 36.6438 83.0541 35.3152Z" fill="#A8CF45"/>
<path d="M97.4981 35.7346C97.2148 35.5947 97.0732 35.315 97.0732 34.8954C97.0732 34.266 96.9316 33.1472 96.6484 31.6087L96.5068 30.9094L92.4709 30.4199C92.3293 30.9094 92.0461 31.8884 91.7629 33.4269C91.6213 34.4758 91.338 35.1751 90.984 35.5248C90.7716 35.7346 90.4884 35.8045 90.1344 35.8045C89.7803 35.8045 89.4971 35.7346 89.2139 35.5947C88.9307 35.4549 88.7891 35.2451 88.7891 34.9653L88.8599 34.8255L88.9307 34.6856C90.7008 29.1612 92.1169 23.6367 93.0374 18.2521C93.0374 18.1821 93.0374 18.0423 93.1082 17.8325C93.1082 17.6227 93.179 17.343 93.179 16.9234C93.2498 16.1542 93.3206 15.4549 93.4622 15.0353C93.533 14.5458 93.7454 14.1961 93.9578 13.9863H95.3739C95.7279 13.9863 96.082 14.0563 96.3652 14.1961C96.6484 14.336 96.79 14.5458 96.79 14.8255C96.79 16.4339 97.0732 18.8814 97.6397 22.1681C98.2061 25.5248 98.4893 27.8325 98.4893 29.1612C98.4893 29.301 98.5601 29.6507 98.7017 30.1402C98.8434 30.6297 98.9142 30.9793 98.9142 31.1192C98.9142 31.2591 99.0558 31.8884 99.339 33.0772C99.5514 34.1262 99.693 34.7556 99.693 35.1052C99.693 35.5947 99.4806 35.8744 99.0558 36.0143C98.2769 35.9444 97.7813 35.8744 97.4981 35.7346ZM96.082 28.5318C96.082 26.5737 95.8696 24.1262 95.4447 21.1192L95.0199 17.7626C93.8162 22.8674 93.0374 26.6437 92.6125 29.2311C93.0374 29.4409 94.241 29.6507 96.2236 29.7206C96.082 29.4409 96.082 29.0213 96.082 28.5318Z" fill="#A8CF45"/>
<path d="M102.596 35.6649C102.242 35.4551 102.03 35.1754 102.03 34.8257L102.455 34.2663C102.596 34.2663 102.879 34.3362 103.233 34.4061C103.658 34.4761 103.942 34.4761 104.154 34.4761C104.65 34.4761 105.074 34.3362 105.499 33.9865C105.924 33.6369 106.207 33.2173 106.349 32.6579C106.703 31.6089 106.915 30.6998 106.915 29.8607C106.915 28.4621 106.349 26.9236 105.216 25.3851L104.791 24.7558C104.296 24.0565 103.8 23.4271 103.446 22.8677C103.092 22.3082 102.809 21.6788 102.525 21.0495C102.171 20.2103 102.03 19.3712 102.03 18.532C102.03 17.553 102.313 16.574 102.879 15.525C103.163 15.0355 103.517 14.6159 104.083 14.3362C104.579 14.0565 105.145 13.8467 105.782 13.8467C106.278 13.8467 106.703 13.9865 107.128 14.1963C107.553 14.4761 107.765 14.7558 107.765 15.1054C107.765 15.3152 107.694 15.4551 107.482 15.525C107.269 15.6649 107.057 15.6649 106.774 15.6649C106.49 15.6649 106.207 15.5949 105.924 15.4551C105.358 15.4551 104.862 15.8747 104.508 16.7138C104.225 17.483 104.083 18.1124 104.083 18.6019C104.083 19.2313 104.225 19.8607 104.437 20.49C104.65 21.1194 105.004 21.6788 105.358 22.2383L106.278 23.567L107.694 25.7348C108.048 26.3642 108.402 27.0635 108.615 27.8327C108.827 28.6019 108.969 29.4411 108.969 30.2802C108.969 31.6089 108.615 32.8677 107.836 34.0565C107.482 34.6858 106.915 35.1754 106.207 35.525C105.499 35.8747 104.72 36.0844 103.871 36.0844V36.1544C103.304 36.0844 102.879 35.9446 102.596 35.6649Z" fill="#A8CF45"/>
<path d="M115.837 35.8046C115.341 35.5948 114.916 35.2451 114.562 34.8255C113.925 33.9164 113.5 32.8675 113.288 31.7486C113.075 30.7696 113.004 29.5808 113.004 28.1822C112.934 25.8745 112.863 23.0073 112.863 19.6507L112.792 17.1332C112.792 16.9934 112.721 16.7836 112.721 16.5039C112.65 15.6647 112.65 15.1752 112.65 15.0353C112.863 14.6157 113.217 14.336 113.5 14.336C113.854 14.336 114.137 14.5458 114.35 14.8955C114.633 15.315 114.704 15.7346 114.704 16.1542V24.9654C114.704 25.8046 114.775 26.9934 114.987 28.392C115.199 30.1402 115.27 31.329 115.27 31.8185C115.27 33.4269 116.12 34.1962 117.819 34.1962C119.802 34.1962 120.793 28.392 120.793 16.7836V14.9654V14.6857C120.793 14.6157 120.722 14.5458 120.722 14.4059C120.722 14.1262 120.793 13.9864 120.935 13.8465C121.076 13.7066 121.359 13.6367 121.784 13.6367C122.138 13.6367 122.421 13.7066 122.634 13.8465C122.846 13.9864 122.988 14.1962 122.988 14.4059C122.988 14.5458 123.059 14.7556 123.059 15.1752C123.059 15.5248 122.988 16.0843 122.917 16.8535C122.775 17.4829 122.775 18.0423 122.775 18.4619C122.775 18.9514 122.775 19.371 122.705 19.7906L122.634 21.1192V21.399C122.634 21.4689 122.705 21.6087 122.705 21.6787C122.705 31.2591 120.935 36.0843 117.394 36.0843C116.899 36.1542 116.332 36.0143 115.837 35.8046Z" fill="#A8CF45"/>
<path d="M138.423 35.525C138.282 35.3851 138.14 35.1753 138.069 34.8257L137.857 34.1963V34.1264V34.0564C137.857 33.3571 136.937 30.9096 135.025 26.7837C133.184 22.6578 131.697 19.5809 130.635 17.6229V33.9166L130.777 34.1264C130.777 34.1963 130.847 34.2662 130.918 34.3361C130.989 34.476 131.06 34.5459 131.06 34.6858C131.06 34.9655 130.918 35.1753 130.706 35.3851C130.493 35.5949 130.139 35.6648 129.785 35.6648C128.936 35.6648 128.44 35.0355 128.44 33.7068L128.369 28.1823C128.369 26.504 128.298 24.6858 128.298 22.5879C128.298 21.8886 128.369 20.9096 128.44 19.5809C128.511 18.2522 128.582 17.2033 128.582 16.5739C128.582 15.525 129.077 14.7557 130.068 14.1963V14.4061C130.21 14.3362 130.352 14.3361 130.422 14.3361C131.06 14.3361 131.839 15.1753 132.83 16.9236C133.609 18.3222 134.317 19.7907 134.883 21.2592C135.52 22.7977 136.299 24.9655 137.291 27.8327L137.715 29.0215C138.353 30.7697 138.848 32.0285 139.131 32.7977C139.698 28.1823 139.981 22.6578 139.981 16.3641V15.9445C139.981 15.8047 139.91 15.6648 139.91 15.525C139.91 14.8956 140.264 14.5459 140.902 14.5459C141.256 14.5459 141.61 14.6858 141.751 14.8956C141.964 15.1054 142.034 15.455 142.034 15.8047V18.2522C141.964 21.6089 141.822 25.1753 141.539 29.0914C141.256 33.0075 140.972 35.1753 140.548 35.6648C139.769 35.8047 139.273 35.9445 139.061 35.9445C138.848 35.7348 138.636 35.6648 138.423 35.525Z" fill="#A8CF45"/>
<path d="M64.3613 47.2726C64.2197 46.8531 64.1489 46.2237 64.1489 45.4545V44.3356C64.1489 43.9859 64.1489 43.6363 64.1489 43.2167C64.0781 43.0768 64.0781 43.0069 64.0781 42.937V42.867C64.1489 42.7272 64.2197 42.3775 64.2197 41.8181V41.2587C64.2197 41.0489 64.2197 40.909 64.2197 40.6293C64.2197 40.1398 64.1489 39.7901 64.0781 39.5104C64.0781 39.3705 64.1489 39.3006 64.2197 39.2307C64.2905 39.1607 64.3613 39.0908 64.503 39.0908H65.211C65.4942 39.0908 65.7774 39.1607 65.9899 39.2307C66.2023 39.3006 66.3439 39.5104 66.4855 39.6503C66.6979 39.9999 66.7687 40.4195 66.7687 40.8391C66.7687 41.1887 66.7687 41.3985 66.7687 41.6083C66.7687 41.8181 66.6979 42.0978 66.6271 42.2377C66.6271 42.3775 66.5563 42.4475 66.4855 42.5174C66.4147 42.5873 66.3439 42.6573 66.2731 42.7971C66.1315 42.937 65.919 43.0768 65.565 43.2167C65.4234 43.2866 65.2818 43.3566 64.9986 43.3566V44.7552V45.5244V45.874C65.0694 46.3635 65.0694 46.7132 65.0694 47.0628C65.0694 47.1328 64.9986 47.2726 64.9278 47.3426C64.857 47.4125 64.7154 47.4824 64.5738 47.4824L64.3613 47.2726ZM65.9899 40.7691C65.9899 40.5593 65.9899 40.3496 65.919 40.2097C65.919 40.1398 65.8482 39.9999 65.7774 39.9999C65.7066 39.93 65.6358 39.86 65.565 39.86C65.4234 39.7901 65.3526 39.7901 65.211 39.7901C65.211 39.7901 65.1402 39.7901 65.0694 39.7901V40.4894C65.0694 40.9789 65.0694 41.3985 65.0694 41.8181C65.0694 42.2377 65.0694 42.5174 65.0694 42.6573V42.937C65.7066 42.7971 65.9899 42.0978 65.9899 40.7691Z" fill="#ED2F59"/>
<path d="M68.751 47.2723C68.6094 47.2023 68.6094 47.1324 68.5386 46.9925V46.6429V46.3632C68.5386 46.2932 68.5386 46.2233 68.5386 46.0834C68.5386 45.9436 68.5386 45.6639 68.4678 45.3142V44.545C68.4678 44.1254 68.4678 43.566 68.5386 42.7268C68.6094 42.0275 68.6094 41.3981 68.6094 40.9086C68.6094 40.7688 68.6094 40.6289 68.5386 40.4191C68.5386 40.2093 68.4678 39.9995 68.4678 39.9296C68.4678 39.3702 68.6802 39.0205 69.105 39.0205C69.459 39.0205 69.8131 39.0904 70.3087 39.1604C70.7335 39.3002 71.0168 39.3702 71.0168 39.51C71.0168 39.5799 70.9459 39.6499 70.8751 39.7198C70.8043 39.7897 70.6627 39.8597 70.5211 39.8597C70.0963 39.7198 69.6715 39.6499 69.3174 39.5799C69.3174 39.7198 69.3174 39.8597 69.3174 40.1394C69.3174 40.489 69.3174 40.7688 69.3174 41.0485C69.3174 41.4681 69.2466 41.7478 69.2466 41.9576L69.3174 42.1674H69.6007C69.6715 42.1674 69.8131 42.1674 69.8839 42.1674C70.3795 42.1674 70.6627 42.3072 70.6627 42.517C70.6627 42.5869 70.5919 42.6569 70.5211 42.7268C70.4503 42.7967 70.3087 42.7967 70.1671 42.7967C69.9547 42.7967 69.8131 42.7967 69.7423 42.7967H69.3882C69.3882 43.0065 69.3882 43.3562 69.3882 43.7058C69.3882 44.1254 69.3882 44.4751 69.3882 44.8247C69.3882 45.3142 69.3174 45.7338 69.3174 45.9436C69.3174 46.4331 69.3174 46.6429 69.3174 46.6429H69.8131C69.9547 46.6429 70.2379 46.6429 70.4503 46.6429C70.8751 46.6429 71.0168 46.7128 71.0168 46.9226C71.0168 47.0625 70.9459 47.1324 70.8043 47.2023C70.6627 47.2723 70.5211 47.2723 70.3087 47.2723H68.9634C68.9634 47.3422 68.8926 47.3422 68.751 47.2723Z" fill="#ED2F59"/>
<path d="M74.9821 46.7833C74.7696 46.3638 74.628 45.9442 74.4864 45.4547L74.3448 45.0351C74.0616 43.8463 73.8492 43.2169 73.7784 43.0071H73.6368C73.6368 43.2169 73.6368 43.4966 73.6368 43.6365V44.3358C73.6368 45.4547 73.7076 46.2938 73.92 46.9232L73.7784 47.2728H73.3535L73.1411 47.0631V46.2239C73.1411 45.4547 73.0703 44.3358 72.9995 42.8673C72.9287 41.2589 72.8579 40.14 72.8579 39.5106C72.8579 39.091 72.9995 38.9512 73.3535 38.9512C73.92 38.9512 74.3448 39.091 74.7696 39.3008C75.1237 39.5106 75.3361 39.8603 75.3361 40.2798V41.119C75.3361 41.2589 75.3361 41.3987 75.2653 41.5386C75.1945 41.6784 75.1237 41.8183 75.1237 41.9582L74.8404 42.3777L74.5572 42.7274L74.628 43.0071L74.8404 43.9162C74.982 44.5456 75.1237 45.0351 75.2653 45.4547C75.4069 45.8742 75.5485 46.2239 75.7609 46.5036L75.8317 46.6435C75.9025 46.7833 75.9733 46.9232 75.9733 47.0631C75.9733 47.133 75.9733 47.2029 75.9025 47.2728C75.8317 47.3428 75.7609 47.3428 75.6193 47.3428C75.3361 47.4127 75.1237 47.2029 74.9821 46.7833ZM74.274 41.6784C74.4156 41.2589 74.4864 40.9092 74.4864 40.5596C74.4864 40.2798 74.4156 40.0701 74.3448 39.7903C74.274 39.6505 74.2032 39.5805 74.0616 39.5106C73.92 39.4407 73.7784 39.3708 73.6368 39.3708V39.4407V39.5805V41.0491C73.6368 41.4687 73.6368 41.9582 73.6368 42.4477C73.92 42.3777 74.0616 42.098 74.274 41.6784Z" fill="#ED2F59"/>
<path d="M78.4517 47.2731C78.2393 47.2031 78.0977 47.0633 77.9561 46.9234C77.6729 46.5738 77.5313 46.1542 77.4605 45.7346C77.3897 45.385 77.3189 44.8954 77.3189 44.4059C77.3189 43.4968 77.248 42.4479 77.248 41.1192V40.1402C77.248 40.0703 77.248 40.0003 77.248 39.8605C77.248 39.5808 77.248 39.371 77.248 39.301C77.3189 39.1612 77.4605 39.0213 77.6021 39.0213C77.7437 39.0213 77.8145 39.0912 77.9561 39.2311C78.0269 39.371 78.0977 39.5108 78.0977 39.7206V43.0773C78.0977 43.4269 78.1685 43.8465 78.2393 44.4059C78.3101 45.1052 78.3809 45.5248 78.3809 45.7346C78.3809 46.364 78.7349 46.6437 79.3722 46.6437C80.151 46.6437 80.5051 44.4059 80.5051 40.0003V39.301V39.1612V39.0912C80.5051 39.0213 80.5051 38.9514 80.5759 38.8815C80.6467 38.8115 80.7175 38.8115 80.9299 38.8115C81.0715 38.8115 81.1423 38.8115 81.2839 38.8815C81.3547 38.9514 81.4255 39.0213 81.4255 39.0912C81.4255 39.1612 81.4255 39.2311 81.4255 39.371C81.4255 39.5108 81.4255 39.7206 81.3547 40.0003C81.2839 40.2101 81.2839 40.4199 81.2839 40.6297C81.2839 40.8395 81.2839 40.9794 81.2839 41.1192V41.6087V41.6787C81.2839 41.6787 81.2839 41.7486 81.2839 41.8185C81.2839 45.4549 80.5759 47.2731 79.2306 47.2731C78.8766 47.4129 78.6641 47.343 78.4517 47.2731Z" fill="#ED2F59"/>
<path d="M88.5056 47.2031C88.3639 47.1332 88.3639 47.0633 88.3639 46.8535C88.3639 46.5738 88.2931 46.1542 88.2223 45.5947L88.1515 45.315L86.5938 45.1052C86.523 45.315 86.4522 45.6647 86.3106 46.2241C86.2398 46.6437 86.169 46.9234 86.0274 46.9933C85.9566 47.0633 85.8858 47.1332 85.7442 47.1332C85.6026 47.1332 85.5318 47.1332 85.3901 47.0633C85.3193 46.9933 85.2485 46.9234 85.2485 46.8535V46.7836V46.7136C85.9566 44.6157 86.4522 42.5178 86.8062 40.4199C86.8062 40.4199 86.8062 40.35 86.8062 40.2801C86.8062 40.2101 86.8062 40.0703 86.8062 39.9304C86.8062 39.6507 86.877 39.371 86.877 39.2311C86.877 39.0912 86.9478 38.8815 87.0895 38.8115H87.6559C87.7975 38.8115 87.9391 38.8115 88.0099 38.8815C88.0807 38.9514 88.1515 39.0213 88.1515 39.0912C88.1515 39.7206 88.2931 40.6297 88.5056 41.8884C88.718 43.1472 88.7888 44.0563 88.7888 44.5458C88.7888 44.6157 88.7888 44.7556 88.8596 44.8954C88.9304 45.1052 88.9304 45.1752 88.9304 45.2451C88.9304 45.315 89.0012 45.5248 89.072 46.0143C89.1428 46.4339 89.2136 46.6437 89.2136 46.7836C89.2136 46.9933 89.1428 47.0633 88.9304 47.1332C88.8596 47.2731 88.6472 47.2731 88.5056 47.2031ZM88.0099 44.4759C88.0099 43.7066 87.9391 42.7975 87.7267 41.6087L87.5851 40.35C87.1603 42.308 86.8062 43.7766 86.6646 44.7556C86.8062 44.8255 87.3019 44.8954 88.0099 44.9654C88.0099 44.8255 88.0099 44.6856 88.0099 44.4759Z" fill="#ED2F59"/>
<path d="M90.7715 45.6645V43.7064C90.7715 43.147 90.7715 42.4477 90.7715 41.7484C90.7715 41.4687 90.7715 41.0491 90.7007 40.4896C90.6299 39.8603 90.6299 39.5106 90.6299 39.3708C90.6299 39.2309 90.7007 39.161 90.7715 39.091C90.8423 39.0211 90.9839 38.9512 91.1255 38.9512C91.4795 38.9512 91.8336 39.0211 92.1876 39.161C92.5416 39.3008 92.8248 39.4407 93.108 39.7204C93.6745 40.2099 94.0285 40.7694 94.1701 41.3987C94.2409 41.6784 94.3117 42.0281 94.3117 42.3078C94.3117 42.4477 94.3117 42.5176 94.3117 42.5875V42.9372V43.6365C94.3117 44.1959 94.3117 44.5456 94.2409 44.8952C94.1701 45.3148 94.0285 45.6645 93.8869 46.0141C93.6745 46.3638 93.3913 46.6435 92.9664 46.9232C92.754 47.0631 92.5416 47.2029 92.2584 47.2729H91.1255C90.9131 47.2729 90.7715 46.7134 90.7715 45.6645ZM92.4 46.5036C92.6124 46.4337 92.754 46.2938 92.8248 46.154C92.8956 46.0141 93.0372 45.8743 93.108 45.6645C93.1788 45.4547 93.2497 45.2449 93.3205 45.105C93.3913 44.7554 93.4621 44.3358 93.4621 43.9861C93.4621 43.9162 93.4621 43.7763 93.4621 43.5666C93.4621 41.0491 92.8248 39.7903 91.6211 39.6505C91.5503 40.0001 91.4795 40.4197 91.4795 40.9092C91.4795 41.3987 91.5503 42.3078 91.6211 43.6365C91.6919 44.7554 91.7628 45.6645 91.7628 46.3638V46.6435C92.046 46.6435 92.2584 46.5736 92.4 46.5036Z" fill="#ED2F59"/>
<path d="M97.2857 47.1328C97.2857 46.1538 97.1441 45.1748 96.9317 44.1958C96.7193 43.2167 96.3653 41.958 95.8696 40.4895C95.8696 40.4195 95.7988 40.2797 95.728 40.1398C95.5156 39.6503 95.4448 39.3706 95.4448 39.2307C95.4448 39.1608 95.5156 39.0909 95.5864 39.0209C95.6572 38.951 95.728 38.951 95.8696 38.951C96.0113 38.951 96.1529 39.0209 96.2945 39.2307C96.4361 39.4405 96.5777 39.7202 96.6485 40C96.7901 40.3496 96.8609 40.7692 97.0025 41.2587C97.1441 41.7482 97.2858 42.4475 97.4274 43.4265L97.4982 43.916L97.7106 45.0349C97.7814 45.3146 97.7814 45.5244 97.8522 45.6643C98.0646 44.7552 98.3478 43.4265 98.7018 41.7482C98.9851 40.2797 99.1975 39.3007 99.2683 38.7412H99.6223C99.6931 38.7412 99.8347 38.7412 99.9055 38.8111C99.9763 38.8811 100.047 38.951 100.047 39.0209C100.047 39.3006 99.9763 39.6503 99.9055 40C99.8347 40.3496 99.6931 40.7692 99.4807 41.2587C99.3391 41.6783 99.2683 41.958 99.1975 42.1678C99.1267 42.3776 99.1267 42.7272 99.0559 43.1468C98.9851 44.1258 98.8435 45.0349 98.631 45.8041C98.4894 46.2937 98.3478 46.6433 98.2062 46.923C97.9938 47.2027 97.7814 47.3426 97.569 47.3426L97.2857 47.1328Z" fill="#ED2F59"/>
<path d="M101.959 47.2723C101.817 47.2023 101.817 47.1324 101.746 46.9925V46.6429V46.3632C101.746 46.2932 101.746 46.2233 101.746 46.0834C101.746 45.9436 101.746 45.6639 101.675 45.3142V44.545C101.675 44.1254 101.675 43.566 101.746 42.7268C101.817 42.0275 101.817 41.3981 101.817 40.9086C101.817 40.7688 101.817 40.6289 101.746 40.4191C101.746 40.2093 101.675 39.9995 101.675 39.9296C101.675 39.3702 101.888 39.0205 102.313 39.0205C102.667 39.0205 103.021 39.0904 103.516 39.1604C103.941 39.3002 104.224 39.3702 104.224 39.51C104.224 39.5799 104.153 39.6499 104.083 39.7198C104.012 39.7897 103.87 39.8597 103.729 39.8597C103.304 39.7198 102.879 39.6499 102.525 39.5799C102.525 39.7198 102.525 39.8597 102.525 40.1394C102.525 40.489 102.525 40.7688 102.525 41.0485C102.525 41.4681 102.454 41.7478 102.454 41.9576L102.525 42.1674H102.808C102.879 42.1674 103.021 42.1674 103.091 42.1674C103.587 42.1674 103.87 42.3072 103.87 42.517C103.87 42.5869 103.799 42.6569 103.729 42.7268C103.658 42.7967 103.516 42.7967 103.375 42.7967C103.162 42.7967 103.021 42.7967 102.95 42.7967H102.525C102.525 43.0065 102.525 43.3562 102.525 43.7058C102.525 44.1254 102.525 44.4751 102.525 44.8247C102.525 45.3142 102.454 45.7338 102.454 45.9436C102.454 46.4331 102.454 46.6429 102.454 46.6429H102.95C103.091 46.6429 103.375 46.6429 103.587 46.6429C104.012 46.6429 104.153 46.7128 104.153 46.9226C104.153 47.0625 104.083 47.1324 103.941 47.2023C103.799 47.2723 103.658 47.2723 103.445 47.2723H102.1C102.171 47.3422 102.029 47.3422 101.959 47.2723Z" fill="#ED2F59"/>
<path d="M110.03 47.1328C109.96 47.0628 109.889 46.9929 109.889 46.8531L109.818 46.6433V46.5733C109.818 46.2936 109.464 45.3845 108.756 43.7761C108.048 42.1677 107.482 41.0489 107.057 40.2796V46.5034L107.127 46.5733C107.127 46.5733 107.127 46.6433 107.198 46.6433C107.198 46.7132 107.269 46.7132 107.269 46.7831C107.269 46.923 107.198 46.9929 107.127 47.0628C107.057 47.1328 106.915 47.2027 106.773 47.2027C106.419 47.2027 106.278 46.923 106.278 46.4335V44.3356C106.278 43.7062 106.278 43.0069 106.278 42.2377C106.278 41.958 106.278 41.6083 106.349 41.1188C106.349 40.6293 106.419 40.2097 106.419 39.9999C106.419 39.5803 106.632 39.3006 106.986 39.0908V39.1607C107.057 39.1607 107.057 39.1607 107.127 39.1607C107.34 39.1607 107.694 39.5104 108.048 40.1398C108.331 40.6992 108.614 41.1887 108.827 41.8181C109.039 42.3775 109.393 43.2167 109.747 44.3356L109.889 44.7552C110.101 45.4545 110.314 45.874 110.455 46.2237C110.668 44.4754 110.739 42.3775 110.739 39.93V39.7901C110.739 39.7202 110.739 39.7202 110.739 39.6503C110.739 39.3705 110.88 39.3006 111.093 39.3006C111.234 39.3006 111.376 39.3705 111.447 39.4405C111.517 39.5104 111.588 39.6503 111.588 39.7901V40.6992C111.588 41.958 111.517 43.3566 111.376 44.8251C111.305 46.2936 111.163 47.1328 111.022 47.3426C110.739 47.4125 110.526 47.4125 110.455 47.4125C110.172 47.2027 110.101 47.2027 110.03 47.1328Z" fill="#ED2F59"/>
<path d="M114.421 46.9931V46.5036C114.421 46.3638 114.421 46.2239 114.421 46.0141V45.5945C114.421 45.5246 114.279 44.6155 114.208 42.8673C114.066 41.119 113.996 40.0701 113.996 39.5805C113.358 39.5805 113.004 39.5106 112.863 39.4407C112.721 39.3708 112.721 39.3008 112.721 39.2309C112.721 39.161 112.792 39.091 112.863 39.0211C113.004 38.9512 113.075 38.9512 113.217 38.9512C113.5 38.9512 113.854 38.9512 114.279 39.0211C114.704 39.091 115.058 39.091 115.341 39.091H115.483H115.624C115.978 39.091 116.12 39.161 116.12 39.3708C116.12 39.4407 116.049 39.5805 115.978 39.5805C115.907 39.5805 115.766 39.6505 115.624 39.6505C115.553 39.6505 115.412 39.6505 115.199 39.5805L114.916 39.5106V39.5805V39.6505C114.916 40.3498 114.987 41.5386 115.199 43.147C115.341 44.6854 115.483 45.8043 115.483 46.6435C115.483 46.7134 115.412 46.8533 115.341 46.9232C115.199 46.9931 115.129 47.0631 114.987 47.0631L114.421 46.9931Z" fill="#ED2F59"/>
<path d="M118.527 47.2731C118.315 47.2031 118.173 47.0633 118.031 46.9234C117.748 46.5738 117.606 46.1542 117.536 45.7346C117.465 45.385 117.394 44.8954 117.394 44.4059C117.394 43.4968 117.323 42.4479 117.323 41.1192V40.1402C117.323 40.0703 117.323 40.0003 117.323 39.8605C117.323 39.5808 117.323 39.371 117.323 39.301C117.394 39.1612 117.536 39.0213 117.677 39.0213C117.819 39.0213 117.89 39.0912 118.031 39.2311C118.102 39.371 118.173 39.5108 118.173 39.7206V43.0773C118.173 43.4269 118.244 43.8465 118.315 44.4059C118.385 45.1052 118.456 45.5248 118.456 45.7346C118.456 46.364 118.81 46.6437 119.447 46.6437C120.226 46.6437 120.58 44.4059 120.58 40.0003V39.301V39.1612V39.0912C120.58 39.0213 120.58 38.9514 120.651 38.8815C120.722 38.8115 120.793 38.8115 121.005 38.8115C121.147 38.8115 121.218 38.8115 121.359 38.8815C121.43 38.9514 121.501 39.0213 121.501 39.0912C121.501 39.1612 121.501 39.2311 121.501 39.371C121.501 39.5108 121.501 39.7206 121.43 40.0003C121.359 40.2101 121.359 40.4199 121.359 40.6297C121.359 40.8395 121.359 40.9794 121.359 41.1192V41.6087V41.6787C121.359 41.6787 121.359 41.7486 121.359 41.8185C121.359 45.4549 120.651 47.2731 119.306 47.2731C118.952 47.4129 118.739 47.343 118.527 47.2731Z" fill="#ED2F59"/>
<path d="M125.254 46.7833C125.041 46.3638 124.9 45.9442 124.758 45.4547L124.616 45.0351C124.333 43.8463 124.121 43.2169 124.05 43.0071H123.908C123.908 43.2169 123.908 43.4966 123.908 43.6365V44.3358C123.908 45.4547 123.979 46.2938 124.191 46.9232L124.05 47.2728H123.625L123.413 47.0631V46.2239C123.413 45.4547 123.342 44.3358 123.271 42.8673C123.2 41.2589 123.129 40.14 123.129 39.5106C123.129 39.091 123.271 38.9512 123.625 38.9512C124.191 38.9512 124.616 39.091 125.041 39.3008C125.395 39.5106 125.608 39.8603 125.608 40.2798V41.119C125.608 41.2589 125.608 41.3987 125.537 41.5386C125.466 41.6784 125.395 41.8183 125.395 41.9582L125.112 42.3777L124.829 42.7274L124.9 43.0071L125.112 43.9162C125.254 44.5456 125.395 45.0351 125.537 45.4547C125.678 45.8742 125.82 46.2239 126.032 46.5036L126.103 46.6435C126.174 46.7833 126.245 46.9232 126.245 47.0631C126.245 47.133 126.245 47.2029 126.174 47.2728C126.103 47.3428 126.032 47.3428 125.891 47.3428C125.678 47.4127 125.466 47.2029 125.254 46.7833ZM124.545 41.6784C124.687 41.2589 124.758 40.9092 124.758 40.5596C124.758 40.2798 124.687 40.0701 124.616 39.7903C124.545 39.6505 124.475 39.5805 124.333 39.5106C124.191 39.4407 124.05 39.3708 123.908 39.3708V39.4407V39.5805V41.0491C123.908 41.4687 123.908 41.9582 123.908 42.4477C124.191 42.3777 124.404 42.098 124.545 41.6784Z" fill="#ED2F59"/>
<path d="M128.156 47.2723C128.015 47.2023 128.015 47.1324 127.944 46.9925V46.6429V46.3632C127.944 46.2932 127.944 46.2233 127.944 46.0834C127.944 45.9436 127.944 45.6639 127.873 45.3142V44.545C127.873 44.1254 127.873 43.566 127.944 42.7268C128.015 42.0275 128.015 41.3981 128.015 40.9086C128.015 40.7688 128.015 40.6289 127.944 40.4191C127.944 40.2093 127.873 39.9995 127.873 39.9296C127.873 39.3702 128.085 39.0205 128.51 39.0205C128.864 39.0205 129.218 39.0904 129.714 39.1604C130.139 39.3002 130.422 39.3702 130.422 39.51C130.422 39.5799 130.351 39.6499 130.28 39.7198C130.21 39.7897 130.068 39.8597 129.926 39.8597C129.502 39.7198 129.077 39.6499 128.723 39.5799C128.723 39.7198 128.723 39.8597 128.723 40.1394C128.723 40.489 128.723 40.7688 128.723 41.0485C128.723 41.4681 128.652 41.7478 128.652 41.9576L128.723 42.1674H129.006C129.077 42.1674 129.218 42.1674 129.289 42.1674C129.785 42.1674 130.068 42.3072 130.068 42.517C130.068 42.5869 129.997 42.6569 129.926 42.7268C129.856 42.7967 129.714 42.7967 129.572 42.7967C129.36 42.7967 129.218 42.7967 129.148 42.7967H128.723C128.723 43.0065 128.723 43.3562 128.723 43.7058C128.723 44.1254 128.723 44.4751 128.723 44.8247C128.723 45.3142 128.652 45.7338 128.652 45.9436C128.652 46.4331 128.652 46.6429 128.652 46.6429H129.148C129.289 46.6429 129.572 46.6429 129.785 46.6429C130.21 46.6429 130.351 46.7128 130.351 46.9226C130.351 47.0625 130.28 47.1324 130.139 47.2023C129.997 47.2723 129.856 47.2723 129.643 47.2723H128.298C128.369 47.3422 128.227 47.3422 128.156 47.2723Z" fill="#ED2F59"/>
<path d="M132.051 47.2025C131.909 47.1326 131.838 46.9927 131.838 46.8529L131.98 46.6431C132.051 46.6431 132.122 46.6431 132.263 46.713C132.405 46.713 132.546 46.783 132.617 46.783C132.83 46.783 132.971 46.713 133.113 46.5732C133.254 46.4333 133.396 46.2934 133.467 46.0837C133.608 45.6641 133.679 45.3144 133.679 45.0347C133.679 44.4753 133.467 43.9158 133.042 43.2865L132.9 43.0767C132.688 42.7969 132.546 42.5872 132.405 42.3774C132.263 42.1676 132.122 41.9578 132.051 41.6781C131.909 41.3284 131.838 41.0487 131.838 40.699C131.838 40.3494 131.909 39.9298 132.122 39.5802C132.192 39.3704 132.405 39.2305 132.546 39.0907C132.759 38.9508 132.971 38.8809 133.184 38.8809C133.396 38.8809 133.538 38.9508 133.679 39.0207C133.821 39.0907 133.892 39.2305 133.892 39.3704C133.892 39.4403 133.821 39.5102 133.75 39.5102C133.679 39.5802 133.608 39.5802 133.467 39.5802C133.325 39.5802 133.254 39.5802 133.113 39.5102C132.9 39.5102 132.688 39.6501 132.546 39.9997C132.405 40.2795 132.405 40.5592 132.405 40.699C132.405 40.9088 132.476 41.1886 132.546 41.3983C132.617 41.6081 132.759 41.8879 132.9 42.0277L133.254 42.5172L133.821 43.3564C133.963 43.5662 134.104 43.8459 134.175 44.1256C134.246 44.4053 134.317 44.755 134.317 45.0347C134.317 45.5242 134.175 46.0137 133.892 46.5032C133.75 46.713 133.538 46.9228 133.254 47.0627C132.971 47.2025 132.688 47.2725 132.405 47.2725V47.3424C132.334 47.3424 132.192 47.2725 132.051 47.2025Z" fill="#ED2F59"/>
<path d="M46.5188 35.3845L42.1997 30.4195L48.5721 28.5314L42.9785 24.9649C41.9873 24.6153 40.9252 24.3356 39.8631 24.2656C38.8718 33.846 23.7904 47.2726 12.0368 33.5663C11.1872 33.3565 10.4083 33.0768 9.62946 32.7272L4.3899 30.4894L0 35.3845C2.61978 35.0349 4.67312 35.1747 6.65565 35.4544C6.01841 37.6223 5.31036 39.6502 3.96507 41.3985C6.16002 41.3985 8.28416 40.6293 10.3375 39.5803C9.70026 41.3286 9.55865 43.6363 9.41704 46.0139C11.0456 44.4754 12.9573 43.4265 15.0106 42.5174C15.1522 45.0349 15.3646 47.3425 16.0019 48.9509C17.064 47.0628 18.5509 45.3845 20.3918 44.0558C21.7371 45.9439 22.6575 47.9719 23.224 49.93C25.2065 47.5523 25.4897 45.9439 26.0562 44.0558C27.8263 45.3146 29.2424 46.9929 30.4461 48.9509C31.1541 46.7132 31.3665 44.6153 31.4373 42.5174C32.8534 43.9859 34.9068 45.0349 37.0309 46.0139C36.3937 43.916 35.544 41.7481 36.1105 39.5803C38.5886 39.86 40.642 40.5593 42.4829 41.3985C41.8456 39.2307 41.1376 37.1328 39.7923 35.4544C42.4121 34.6852 44.3946 35.1747 46.5188 35.3845Z" fill="#A8CF45"/>
<path d="M30.3042 27.6924C26.1268 31.5386 18.7631 34.8253 12.4614 33.6365C23.7194 45.0351 37.3139 33.4267 39.1548 24.3358C35.8978 24.2658 32.4992 25.5246 30.3042 27.6924Z" fill="#A8CF45"/>
<path d="M8.9214 19.2306C19.1173 4.54524 26.9058 6.15363 36.6061 16.6431L39.8631 14.6152L42.5537 8.67112C40.5712 9.37042 38.6594 10.2795 36.1813 10.4893C36.8185 8.81098 37.0309 6.0837 37.1017 4.05573C35.6148 5.31447 33.8447 6.64315 31.5081 7.55224C31.4373 5.45433 31.2249 3.2865 30.5169 1.11867C29.3132 2.72706 27.3307 5.52426 26.127 6.01377C24.4985 4.54524 24.2861 2.09769 23.2948 0.139648C22.3743 2.09769 21.029 3.70608 20.4626 6.01377C17.9136 4.54524 17.064 2.44734 16.0727 1.11867C15.7187 3.2865 15.223 4.75503 15.0814 7.55224C14.0902 6.01377 11.3288 5.24454 9.48784 4.05573C10.1251 6.22356 10.0543 7.62217 10.4083 10.4893C8.8506 9.30049 6.65565 9.51028 4.03587 8.67112C6.58484 12.0278 5.8768 12.6571 6.72645 14.6152C5.52277 14.0557 4.17748 13.9159 0.0708008 14.6851C1.77012 16.6431 5.23955 21.3984 7.78853 24.755C7.4345 23.2865 7.29289 21.5382 8.9214 19.2306Z" fill="#ED2F59"/>
<path d="M10.5499 28.3218C12.8157 30.4197 15.6478 30.7694 19.1881 29.2309C19.6837 28.2519 20.0377 27.6225 20.5334 26.7134C20.7458 26.2939 21.1706 25.105 21.3122 24.6855C21.3122 24.6855 21.3122 24.6155 21.383 24.5456C21.7371 22.5876 20.1794 22.4477 18.4092 21.5386C17.5596 21.119 16.7099 20.6995 15.8603 20.14C14.7274 19.3008 14.515 17.9722 14.0901 16.6435C14.869 17.0631 14.9398 17.4127 16.3559 17.2729C17.8428 17.2029 19.7545 16.7834 21.2414 17.3428C22.2327 17.7624 22.3035 17.8323 23.0823 18.5316C23.3656 17.7624 24.7109 16.7834 25.4897 16.4337C26.6226 15.8743 27.8971 15.8043 29.1008 15.7344C30.3752 15.7344 30.2336 15.5946 31.1541 14.8253C31.7205 16.0141 30.092 17.7624 29.4548 18.3918L28.5343 19.3009C28.2511 19.5806 26.2686 21.0491 25.8437 21.3288C25.6313 21.4687 25.2773 21.6785 25.1357 21.8183C24.6401 22.2379 24.2152 22.6575 23.8612 23.2169C23.6488 23.5666 23.7196 23.4267 23.578 23.7764C23.578 23.7764 23.5072 23.8463 23.5072 23.9162C23.0824 24.9652 23.0824 25.8743 23.1532 26.8533C24.9233 25.6645 26.835 24.196 28.8175 22.5176C31.5081 20.14 33.4199 18.5316 34.6235 17.7624L36.1812 16.7834C26.9766 7.06309 19.4005 6.01413 9.48783 20.2099C8.00092 22.3078 8.00092 23.9862 8.21334 25.3848C9.34622 26.9232 10.1959 28.0421 10.5499 28.3218Z" fill="#ED2F59"/>
</g>
<defs>
<clipPath id="clip0_3437_501">
<rect width="142.105" height="50" fill="white"/>
</clipPath>
</defs>
</svg>
