<svg width="168" height="60" viewBox="0 0 168 60" fill="none" xmlns="http://www.w3.org/2000/svg">
<g clip-path="url(#clip0_3437_1705)">
<path d="M73.4964 42.8811C73.1619 42.7133 72.9947 42.3776 72.9947 41.8741C72.9947 41.1189 72.8275 39.7762 72.493 37.9301L72.3258 37.0909L67.5598 36.5035C67.3926 37.0909 67.0581 38.2657 66.7237 40.1119C66.5565 41.3706 66.222 42.2098 65.8039 42.6294C65.5531 42.8811 65.2186 42.965 64.8006 42.965C64.3825 42.965 64.048 42.8811 63.7136 42.7133C63.3791 42.5454 63.2119 42.2937 63.2119 41.958L63.2955 41.7902L63.3791 41.6224C65.4695 34.993 67.1418 28.3636 68.2287 21.9021C68.2287 21.8182 68.2287 21.6503 68.3123 21.3986C68.3123 21.1468 68.396 20.8112 68.396 20.3077C68.4796 19.3846 68.5632 18.5454 68.7304 18.0419C68.814 17.4545 69.0649 17.035 69.3157 16.7832H70.988C71.406 16.7832 71.8241 16.8671 72.1586 17.035C72.493 17.2028 72.6603 17.4545 72.6603 17.7902C72.6603 19.7203 72.9947 22.6573 73.6636 26.6014C74.3325 30.6294 74.667 33.3986 74.667 34.993C74.667 35.1608 74.7506 35.5804 74.9178 36.1678C75.085 36.7552 75.1687 37.1748 75.1687 37.3426C75.1687 37.5105 75.3359 38.2657 75.6703 39.6923C75.9212 40.951 76.0884 41.7063 76.0884 42.1259C76.0884 42.7133 75.8376 43.0489 75.3359 43.2168C74.4161 43.1329 73.9145 43.0489 73.4964 42.8811ZM71.8241 34.2377C71.8241 31.8881 71.5733 28.951 71.0716 25.3426L70.5699 21.3147C69.1485 27.4405 68.2287 31.972 67.727 35.0769C68.2287 35.3287 69.6502 35.5804 71.9913 35.6643C71.9077 35.3287 71.8241 34.8252 71.8241 34.2377Z" fill="white"/>
<path d="M98.079 42.3768V39.8594V37.3419C98.079 36.0831 97.9954 34.3209 97.7445 32.223C97.4937 29.8733 97.3264 28.2789 97.3264 27.3559L97.4101 24.9223C97.4937 24.251 97.4937 23.4118 97.4937 22.5726C97.3264 22.9083 96.8248 24.6705 95.905 27.9433C94.9853 31.0482 93.9819 33.9852 92.9785 36.6705C91.9752 39.2719 91.2227 40.5307 90.6374 40.5307C90.0521 40.5307 89.5504 40.3628 89.1323 40.1111C88.7979 39.7754 88.547 39.4398 88.547 38.8524C88.547 37.6775 87.9617 35.3279 86.7911 31.5517C85.6205 27.8594 84.6172 24.8384 83.6974 22.4887L83.4466 26.8524C83.1958 30.5447 83.0285 33.6496 82.9449 36.0831C82.9449 38.6006 82.9449 40.2789 82.9449 41.1181C82.9449 41.2859 82.9449 41.5377 83.0285 41.7055V42.209C83.0285 42.6286 82.9449 42.9642 82.6941 43.216C82.4432 43.4677 82.0252 43.5517 81.4399 43.5517C81.1054 43.5517 80.771 43.4677 80.5201 43.2999C80.2693 43.1321 80.1021 42.8803 80.1021 42.6286C80.1021 40.0272 80.3529 35.9992 80.8546 30.7125C81.3562 25.4258 81.6071 21.4817 81.6071 18.7964C81.4399 18.5447 81.3563 18.2929 81.3563 18.0412C81.3563 17.7055 81.5235 17.4538 81.9415 17.2859C82.276 17.1181 82.7777 17.0342 83.2794 17.0342C83.6974 17.0342 84.45 18.2929 85.6205 20.7265C86.7075 23.1601 87.8781 25.9293 89.0487 29.0342C90.2193 32.1391 90.8882 34.3209 91.2227 35.7475C91.4735 35.0761 91.7243 34.4048 91.8916 33.8174L92.1424 32.8943C93.1458 29.2859 94.2327 26.0132 95.2361 23.0761C95.8214 21.3139 96.4067 19.8873 96.992 18.8803C97.5773 17.7894 98.079 17.2859 98.5807 17.2859C98.9987 17.2859 99.4168 17.3698 99.8349 17.5377C100.169 17.7055 100.42 17.9573 100.42 18.2929C100.42 20.1391 100.504 22.9922 100.671 26.6845C100.922 30.1251 101.005 32.8104 101.005 34.7405L100.922 36.8384L100.838 38.9363C100.838 39.2719 100.922 39.6915 101.005 40.3628L101.173 41.7055C101.173 41.9573 101.256 42.1251 101.256 42.209C101.256 42.3768 101.256 42.3768 101.256 42.4607C101.424 42.7964 101.507 43.0482 101.507 43.216C101.507 43.6356 101.34 44.0552 101.005 44.3908C100.671 44.7265 100.337 44.8943 99.8349 44.8943C98.5807 44.8104 98.079 43.9712 98.079 42.3768Z" fill="white"/>
<path d="M115.136 42.8811C114.802 42.7133 114.634 42.3776 114.634 41.8741C114.634 41.1189 114.467 39.7762 114.133 37.9301L113.965 37.0909L109.199 36.5035C109.032 37.0909 108.698 38.2657 108.363 40.1119C108.196 41.3706 107.862 42.2098 107.444 42.6294C107.193 42.8811 106.858 42.965 106.44 42.965C106.022 42.965 105.688 42.8811 105.353 42.7133C105.019 42.5454 104.852 42.2937 104.852 41.958L104.935 41.7902L105.019 41.6224C107.109 34.993 108.781 28.3636 109.868 21.9021C109.868 21.8182 109.868 21.6503 109.952 21.3986C109.952 21.1468 110.036 20.8112 110.036 20.3077C110.119 19.3846 110.203 18.5454 110.37 18.0419C110.454 17.4545 110.705 17.035 110.955 16.7832H112.628C113.046 16.7832 113.464 16.8671 113.798 17.035C114.133 17.2028 114.3 17.4545 114.3 17.7902C114.3 19.7203 114.634 22.6573 115.303 26.6014C115.972 30.6294 116.307 33.3986 116.307 34.993C116.307 35.1608 116.39 35.5804 116.557 36.1678C116.725 36.7552 116.808 37.1748 116.808 37.3426C116.808 37.5105 116.976 38.2657 117.31 39.6923C117.561 40.951 117.728 41.7063 117.728 42.1259C117.728 42.7133 117.477 43.0489 116.976 43.2168C116.056 43.1329 115.47 43.0489 115.136 42.8811ZM113.464 34.2377C113.464 31.8881 113.213 28.951 112.711 25.3426L112.21 21.3147C110.788 27.4405 109.868 31.972 109.367 35.0769C109.868 35.3287 111.29 35.5804 113.631 35.6643C113.464 35.3287 113.464 34.8252 113.464 34.2377Z" fill="white"/>
<path d="M121.156 42.7971C120.738 42.5453 120.487 42.2096 120.487 41.7901L120.989 41.1187C121.156 41.1187 121.491 41.2027 121.909 41.2866C122.41 41.3705 122.745 41.3705 122.996 41.3705C123.581 41.3705 124.083 41.2026 124.584 40.7831C125.086 40.3635 125.421 39.86 125.588 39.1887C126.006 37.9299 126.257 36.839 126.257 35.832C126.257 34.1537 125.588 32.3075 124.25 30.4614L123.748 29.7061C123.163 28.867 122.578 28.1117 122.16 27.4404C121.742 26.7691 121.407 26.0138 121.073 25.2586C120.655 24.2516 120.487 23.2446 120.487 22.2376C120.487 21.0628 120.822 19.888 121.491 18.6292C121.825 18.0418 122.243 17.5383 122.912 17.2026C123.497 16.867 124.166 16.6152 124.919 16.6152C125.504 16.6152 126.006 16.7831 126.507 17.0348C127.009 17.3705 127.26 17.7061 127.26 18.1257C127.26 18.3775 127.176 18.5453 126.926 18.6292C126.675 18.7971 126.424 18.7971 126.089 18.7971C125.755 18.7971 125.421 18.7131 125.086 18.5453C124.417 18.5453 123.832 19.0488 123.414 20.0558C123.079 20.9789 122.912 21.7341 122.912 22.3215C122.912 23.0768 123.079 23.832 123.33 24.5873C123.581 25.3425 123.999 26.0138 124.417 26.6852L125.504 28.2796L127.176 30.881C127.594 31.6362 128.013 32.4754 128.263 33.3985C128.514 34.3215 128.681 35.3285 128.681 36.3355C128.681 37.9299 128.263 39.4404 127.344 40.867C126.926 41.6222 126.257 42.2096 125.421 42.6292C124.584 43.0488 123.665 43.3006 122.661 43.3006V43.3845C121.992 43.3006 121.491 43.1327 121.156 42.7971Z" fill="white"/>
<path d="M136.792 42.9647C136.207 42.7129 135.705 42.2934 135.287 41.7899C134.534 40.6989 134.033 39.4402 133.782 38.0975C133.531 36.9227 133.447 35.4961 133.447 33.8178C133.364 31.0486 133.28 27.608 133.28 23.5801L133.197 20.5591C133.197 20.3913 133.113 20.1395 133.113 19.8038C133.029 18.7968 133.029 18.2094 133.029 18.0416C133.28 17.5381 133.698 17.2024 134.033 17.2024C134.451 17.2024 134.785 17.4542 135.036 17.8738C135.37 18.3773 135.454 18.8808 135.454 19.3843V29.9577C135.454 30.9647 135.538 32.3913 135.789 34.0696C136.039 36.1675 136.123 37.5941 136.123 38.1815C136.123 40.1115 137.126 41.0346 139.133 41.0346C141.474 41.0346 142.645 34.0696 142.645 20.1395V17.9577V17.622C142.645 17.5381 142.561 17.4542 142.561 17.2864C142.561 16.9507 142.645 16.7829 142.812 16.615C142.979 16.4472 143.314 16.3633 143.815 16.3633C144.234 16.3633 144.568 16.4472 144.819 16.615C145.07 16.7829 145.237 17.0346 145.237 17.2864C145.237 17.4542 145.32 17.7059 145.32 18.2094C145.32 18.629 145.237 19.3003 145.153 20.2234C144.986 20.9787 144.986 21.65 144.986 22.1535C144.986 22.7409 144.986 23.2444 144.902 23.7479L144.819 25.3423V25.678C144.819 25.7619 144.902 25.9297 144.902 26.0136C144.902 37.5101 142.812 43.3003 138.631 43.3003C138.046 43.3843 137.377 43.2164 136.792 42.9647Z" fill="white"/>
<path d="M163.465 42.6286C163.297 42.4608 163.13 42.209 163.046 41.7894L162.796 41.0342V40.9503V40.8663C162.796 40.0272 161.709 37.0901 159.451 32.1391C157.277 27.188 155.521 23.4957 154.267 21.1461V40.6985L154.434 40.9503C154.434 41.0342 154.518 41.1181 154.602 41.202C154.685 41.3698 154.769 41.4538 154.769 41.6216C154.769 41.9573 154.602 42.209 154.351 42.4607C154.1 42.7125 153.682 42.7964 153.264 42.7964C152.26 42.7964 151.675 42.0412 151.675 40.4468L151.591 33.8174C151.591 31.8034 151.508 29.6216 151.508 27.1041C151.508 26.2649 151.591 25.0901 151.675 23.4957C151.759 21.9013 151.842 20.6426 151.842 19.8873C151.842 18.6286 152.428 17.7055 153.598 17.0342V17.2859C153.765 17.202 153.933 17.202 154.016 17.202C154.769 17.202 155.689 18.209 156.859 20.3069C157.779 21.9852 158.615 23.7475 159.284 25.5097C160.036 27.3559 160.956 29.9573 162.127 33.3978L162.628 34.8244C163.381 36.9223 163.966 38.4328 164.301 39.3559C164.97 33.8174 165.304 27.188 165.304 19.6356V19.1321C165.304 18.9642 165.22 18.7964 165.22 18.6286C165.22 17.8733 165.639 17.4538 166.391 17.4538C166.809 17.4538 167.227 17.6216 167.394 17.8733C167.645 18.1251 167.729 18.5447 167.729 18.9643V21.9013C167.645 25.9293 167.478 30.209 167.144 34.9083C166.809 39.6076 166.475 42.209 165.973 42.7964C165.053 42.9642 164.468 43.1321 164.217 43.1321C163.966 42.8803 163.715 42.7964 163.465 42.6286Z" fill="white"/>
<path d="M76.0049 56.7274C75.8376 56.2239 75.754 55.4686 75.754 54.5455V53.2029C75.754 52.7833 75.754 52.3637 75.754 51.8602C75.6704 51.6924 75.6704 51.6085 75.6704 51.5246V51.4406C75.754 51.2728 75.8376 50.8532 75.8376 50.1819V49.5106C75.8376 49.2588 75.8376 49.091 75.8376 48.7553C75.8376 48.1679 75.754 47.7483 75.6704 47.4127C75.6704 47.2448 75.754 47.1609 75.8376 47.077C75.9212 46.9931 76.0049 46.9092 76.1721 46.9092H77.0082C77.3427 46.9092 77.6771 46.9931 77.928 47.077C78.1788 47.1609 78.346 47.4127 78.5133 47.5805C78.7641 48.0001 78.8477 48.5036 78.8477 49.0071C78.8477 49.4267 78.8477 49.6784 78.8477 49.9302C78.8477 50.1819 78.7641 50.5176 78.6805 50.6854C78.6805 50.8532 78.5969 50.9371 78.5133 51.0211C78.4297 51.105 78.346 51.1889 78.2624 51.3567C78.0952 51.5246 77.8444 51.6924 77.4263 51.8602C77.2591 51.9441 77.0918 52.0281 76.7574 52.0281V53.7064V54.6295V55.049C76.841 55.6364 76.841 56.056 76.841 56.4756C76.841 56.5595 76.7574 56.7274 76.6738 56.8113C76.5902 56.8952 76.4229 56.9791 76.2557 56.9791L76.0049 56.7274ZM77.928 48.9232C77.928 48.6714 77.928 48.4197 77.8444 48.2518C77.8444 48.1679 77.7607 48.0001 77.6771 48.0001C77.5935 47.9162 77.5099 47.8323 77.4263 47.8323C77.2591 47.7483 77.1755 47.7483 77.0082 47.7483C77.0082 47.7483 76.9246 47.7483 76.841 47.7483V48.5875C76.841 49.1749 76.841 49.6784 76.841 50.1819C76.841 50.6854 76.841 51.0211 76.841 51.1889V51.5246C77.5935 51.3567 77.928 50.5176 77.928 48.9232Z" fill="white"/>
<path d="M81.1889 56.7273C81.0217 56.6434 81.0217 56.5595 80.9381 56.3916V55.972V55.6364C80.9381 55.5525 80.9381 55.4686 80.9381 55.3007C80.9381 55.1329 80.9381 54.7972 80.8545 54.3776V53.4546C80.8545 52.9511 80.8545 52.2797 80.9381 51.2727C81.0217 50.4336 81.0217 49.6783 81.0217 49.0909C81.0217 48.9231 81.0217 48.7553 80.9381 48.5035C80.9381 48.2518 80.8545 48 80.8545 47.9161C80.8545 47.2448 81.1053 46.8252 81.607 46.8252C82.0251 46.8252 82.4432 46.9091 83.0285 46.993C83.5301 47.1609 83.8646 47.2448 83.8646 47.4126C83.8646 47.4965 83.781 47.5804 83.6974 47.6644C83.6137 47.7483 83.4465 47.8322 83.2793 47.8322C82.7776 47.6644 82.2759 47.5804 81.8579 47.4965C81.8579 47.6644 81.8579 47.8322 81.8579 48.1679C81.8579 48.5874 81.8579 48.9231 81.8579 49.2588C81.8579 49.7623 81.7742 50.0979 81.7742 50.3497L81.8579 50.6014H82.1923C82.2759 50.6014 82.4432 50.6014 82.5268 50.6014C83.1121 50.6014 83.4465 50.7693 83.4465 51.021C83.4465 51.1049 83.3629 51.1888 83.2793 51.2727C83.1957 51.3567 83.0284 51.3567 82.8612 51.3567C82.6104 51.3567 82.4432 51.3567 82.3595 51.3567H81.9415C81.9415 51.6084 81.9415 52.028 81.9415 52.4476C81.9415 52.9511 81.9415 53.3706 81.9415 53.7902C81.9415 54.3776 81.8579 54.8811 81.8579 55.1329C81.8579 55.7203 81.8579 55.972 81.8579 55.972H82.4432C82.6104 55.972 82.9448 55.972 83.1957 55.972C83.6974 55.972 83.8646 56.056 83.8646 56.3077C83.8646 56.4755 83.781 56.5595 83.6137 56.6434C83.4465 56.7273 83.2793 56.7273 83.0285 56.7273H81.4398C81.4398 56.8112 81.3562 56.8112 81.1889 56.7273Z" fill="white"/>
<path d="M88.547 56.1398C88.2961 55.6363 88.1289 55.1328 87.9617 54.5454L87.7945 54.0419C87.46 52.6153 87.2092 51.8601 87.1255 51.6083H86.9583C86.9583 51.8601 86.9583 52.1958 86.9583 52.3636V53.2028C86.9583 54.5454 87.0419 55.5524 87.2928 56.3076L87.1255 56.7272H86.6239L86.373 56.4755V55.4685C86.373 54.5454 86.2894 53.2028 86.2058 51.4405C86.1222 49.5104 86.0386 48.1678 86.0386 47.4125C86.0386 46.909 86.2058 46.7412 86.6239 46.7412C87.2928 46.7412 87.7945 46.909 88.2961 47.1608C88.7142 47.4125 88.9651 47.8321 88.9651 48.3356V49.3426C88.9651 49.5104 88.9651 49.6783 88.8814 49.8461C88.7978 50.0139 88.7142 50.1818 88.7142 50.3496L88.3798 50.8531L88.0453 51.2727L88.1289 51.6083L88.3798 52.6993C88.547 53.4545 88.7142 54.0419 88.8814 54.5454C89.0487 55.0489 89.2159 55.4685 89.4667 55.8042L89.5503 55.972C89.634 56.1398 89.7176 56.3077 89.7176 56.4755C89.7176 56.5594 89.7176 56.6433 89.634 56.7272C89.5503 56.8111 89.4667 56.8111 89.2995 56.8111C88.9651 56.8951 88.7142 56.6433 88.547 56.1398ZM87.7108 50.0139C87.8781 49.5104 87.9617 49.0909 87.9617 48.6713C87.9617 48.3356 87.8781 48.0839 87.7945 47.7482C87.7108 47.5804 87.6272 47.4965 87.46 47.4125C87.2928 47.3286 87.1256 47.2447 86.9583 47.2447V47.3286V47.4965V49.2587C86.9583 49.7622 86.9583 50.3496 86.9583 50.937C87.2928 50.8531 87.46 50.5174 87.7108 50.0139Z" fill="white"/>
<path d="M92.6441 56.7271C92.3933 56.6432 92.226 56.4753 92.0588 56.3075C91.7243 55.8879 91.5571 55.3844 91.4735 54.8809C91.3899 54.4614 91.3063 53.8739 91.3063 53.2865C91.3063 52.1956 91.2227 50.9369 91.2227 49.3425V48.1676C91.2227 48.0837 91.2227 47.9998 91.2227 47.832C91.2227 47.4963 91.2227 47.2446 91.2227 47.1607C91.3063 46.9928 91.4735 46.825 91.6407 46.825C91.808 46.825 91.8916 46.9089 92.0588 47.0767C92.1424 47.2446 92.226 47.4124 92.226 47.6642V51.6921C92.226 52.1117 92.3096 52.6152 92.3932 53.2865C92.4769 54.1257 92.5605 54.6292 92.5605 54.8809C92.5605 55.6362 92.9785 55.9718 93.7311 55.9718C94.6508 55.9718 95.0689 53.2865 95.0689 47.9998V47.1607V46.9928V46.9089C95.0689 46.825 95.0689 46.7411 95.1525 46.6572C95.2361 46.5732 95.3197 46.5732 95.5706 46.5732C95.7378 46.5732 95.8214 46.5732 95.9886 46.6572C96.0723 46.7411 96.1559 46.825 96.1559 46.9089C96.1559 46.9928 96.1559 47.0767 96.1559 47.2446C96.1559 47.4124 96.1559 47.6642 96.0723 47.9998C95.9886 48.2516 95.9886 48.5033 95.9886 48.7551C95.9886 49.0068 95.9886 49.1746 95.9886 49.3425V49.9299V50.0138C95.9886 50.0138 95.9886 50.0977 95.9886 50.1816C95.9886 54.5453 95.1525 56.7271 93.5638 56.7271C93.1458 56.8949 92.8949 56.811 92.6441 56.7271Z" fill="white"/>
<path d="M104.517 56.6432C104.35 56.5593 104.35 56.4753 104.35 56.2236C104.35 55.8879 104.266 55.3844 104.183 54.7131L104.099 54.3774L102.26 54.1257C102.176 54.3774 102.092 54.797 101.925 55.4683C101.841 55.9718 101.758 56.3075 101.591 56.3914C101.507 56.4753 101.423 56.5593 101.256 56.5593C101.089 56.5593 101.005 56.5593 100.838 56.4753C100.755 56.3914 100.671 56.3075 100.671 56.2236V56.1397V56.0558C101.507 53.5383 102.092 51.0208 102.51 48.5033C102.51 48.5033 102.51 48.4194 102.51 48.3355C102.51 48.2516 102.51 48.0837 102.51 47.9159C102.51 47.5802 102.594 47.2446 102.594 47.0767C102.594 46.9089 102.678 46.6572 102.845 46.5732H103.514C103.681 46.5732 103.848 46.5732 103.932 46.6572C104.015 46.7411 104.099 46.825 104.099 46.9089C104.099 47.6642 104.266 48.7551 104.517 50.2656C104.768 51.776 104.852 52.8669 104.852 53.4544C104.852 53.5383 104.852 53.7061 104.935 53.8739C105.019 54.1257 105.019 54.2096 105.019 54.2935C105.019 54.3774 105.102 54.6292 105.186 55.2166C105.27 55.7201 105.353 55.9718 105.353 56.1397C105.353 56.3914 105.27 56.4753 105.019 56.5593C104.935 56.7271 104.684 56.7271 104.517 56.6432ZM103.932 53.3704C103.932 52.4474 103.848 51.3565 103.597 49.9299L103.43 48.4194C102.928 50.769 102.51 52.5313 102.343 53.7061C102.51 53.79 103.096 53.8739 103.932 53.9579C103.932 53.79 103.932 53.6222 103.932 53.3704Z" fill="white"/>
<path d="M107.193 54.7972V52.4475C107.193 51.7762 107.193 50.937 107.193 50.0979C107.193 49.7622 107.193 49.2587 107.109 48.5874C107.025 47.8321 107.025 47.4125 107.025 47.2447C107.025 47.0769 107.109 46.993 107.193 46.909C107.276 46.8251 107.443 46.7412 107.611 46.7412C108.029 46.7412 108.447 46.8251 108.865 46.993C109.283 47.1608 109.617 47.3286 109.952 47.6643C110.621 48.2517 111.039 48.923 111.206 49.6783C111.29 50.0139 111.373 50.4335 111.373 50.7692C111.373 50.937 111.373 51.0209 111.373 51.1048V51.5244V52.3636C111.373 53.0349 111.373 53.4545 111.29 53.8741C111.206 54.3776 111.039 54.7972 110.872 55.2167C110.621 55.6363 110.286 55.972 109.785 56.3076C109.534 56.4755 109.283 56.6433 108.949 56.7272H107.611C107.36 56.7272 107.193 56.0559 107.193 54.7972ZM109.116 55.8042C109.367 55.7202 109.534 55.5524 109.617 55.3846C109.701 55.2167 109.868 55.0489 109.952 54.7972C110.035 54.5454 110.119 54.2937 110.203 54.1258C110.286 53.7062 110.37 53.2028 110.37 52.7832C110.37 52.6993 110.37 52.5314 110.37 52.2797C110.37 49.2587 109.617 47.7482 108.196 47.5804C108.112 48 108.029 48.5034 108.029 49.0909C108.029 49.6783 108.112 50.7692 108.196 52.3636C108.28 53.7062 108.363 54.7972 108.363 55.6363V55.972C108.698 55.972 108.948 55.8881 109.116 55.8042Z" fill="white"/>
<path d="M114.885 56.5592C114.885 55.3844 114.718 54.2095 114.467 53.0347C114.216 51.8599 113.798 50.3494 113.213 48.5872C113.213 48.5032 113.129 48.3354 113.046 48.1676C112.795 47.5802 112.711 47.2445 112.711 47.0767C112.711 46.9928 112.795 46.9088 112.879 46.8249C112.962 46.741 113.046 46.741 113.213 46.741C113.38 46.741 113.548 46.8249 113.715 47.0767C113.882 47.3284 114.049 47.6641 114.133 47.9997C114.3 48.4193 114.384 48.9228 114.551 49.5102C114.718 50.0976 114.885 50.9368 115.053 52.1116L115.136 52.699L115.387 54.0417C115.471 54.3774 115.471 54.6291 115.554 54.797C115.805 53.706 116.14 52.1116 116.558 50.0976C116.892 48.3354 117.143 47.1606 117.227 46.4893H117.645C117.728 46.4893 117.895 46.4893 117.979 46.5732C118.063 46.6571 118.146 46.741 118.146 46.8249C118.146 47.1606 118.063 47.5802 117.979 47.9997C117.895 48.4193 117.728 48.9228 117.477 49.5102C117.31 50.0137 117.227 50.3494 117.143 50.6011C117.059 50.8529 117.059 51.2725 116.976 51.776C116.892 52.9508 116.725 54.0417 116.474 54.9648C116.307 55.5522 116.14 55.9718 115.972 56.3074C115.722 56.6431 115.471 56.8109 115.22 56.8109L114.885 56.5592Z" fill="white"/>
<path d="M120.404 56.7273C120.237 56.6434 120.237 56.5595 120.153 56.3916V55.972V55.6364C120.153 55.5525 120.153 55.4686 120.153 55.3007C120.153 55.1329 120.153 54.7972 120.069 54.3776V53.4546C120.069 52.9511 120.069 52.2797 120.153 51.2727C120.237 50.4336 120.237 49.6783 120.237 49.0909C120.237 48.9231 120.237 48.7553 120.153 48.5035C120.153 48.2518 120.069 48 120.069 47.9161C120.069 47.2448 120.32 46.8252 120.822 46.8252C121.24 46.8252 121.658 46.9091 122.243 46.993C122.745 47.1609 123.079 47.2448 123.079 47.4126C123.079 47.4965 122.996 47.5804 122.912 47.6644C122.829 47.7483 122.661 47.8322 122.494 47.8322C121.992 47.6644 121.491 47.5804 121.073 47.4965C121.073 47.6644 121.073 47.8322 121.073 48.1679C121.073 48.5874 121.073 48.9231 121.073 49.2588C121.073 49.7623 120.989 50.0979 120.989 50.3497L121.073 50.6014H121.407C121.491 50.6014 121.658 50.6014 121.742 50.6014C122.327 50.6014 122.661 50.7693 122.661 51.021C122.661 51.1049 122.578 51.1888 122.494 51.2727C122.411 51.3567 122.243 51.3567 122.076 51.3567C121.825 51.3567 121.658 51.3567 121.574 51.3567H121.073C121.073 51.6084 121.073 52.028 121.073 52.4476C121.073 52.9511 121.073 53.3706 121.073 53.7902C121.073 54.3776 120.989 54.8811 120.989 55.1329C120.989 55.7203 120.989 55.972 120.989 55.972H121.574C121.742 55.972 122.076 55.972 122.327 55.972C122.829 55.972 122.996 56.056 122.996 56.3077C122.996 56.4755 122.912 56.5595 122.745 56.6434C122.578 56.7273 122.411 56.7273 122.16 56.7273H120.571C120.655 56.8112 120.487 56.8112 120.404 56.7273Z" fill="white"/>
<path d="M129.935 56.5595C129.852 56.4756 129.768 56.3917 129.768 56.2239L129.685 55.9721V55.8882C129.685 55.5525 129.267 54.4616 128.43 52.5316C127.594 50.6015 126.925 49.2588 126.424 48.3358V55.8043L126.507 55.8882C126.507 55.8882 126.507 55.9721 126.591 55.9721C126.591 56.056 126.674 56.056 126.674 56.1399C126.674 56.3078 126.591 56.3917 126.507 56.4756C126.424 56.5595 126.256 56.6434 126.089 56.6434C125.671 56.6434 125.504 56.3078 125.504 55.7204V53.2029C125.504 52.4476 125.504 51.6085 125.504 50.6854C125.504 50.3497 125.504 49.9302 125.588 49.3427C125.588 48.7553 125.671 48.2518 125.671 48.0001C125.671 47.4966 125.922 47.1609 126.34 46.9092V46.9931C126.424 46.9931 126.424 46.9931 126.507 46.9931C126.758 46.9931 127.176 47.4127 127.594 48.1679C127.929 48.8392 128.263 49.4267 128.514 50.1819C128.765 50.8532 129.183 51.8602 129.601 53.2029L129.768 53.7064C130.019 54.5455 130.27 55.049 130.437 55.4686C130.688 53.3707 130.772 50.8532 130.772 47.9162V47.7483C130.772 47.6644 130.772 47.6644 130.772 47.5805C130.772 47.2448 130.939 47.1609 131.19 47.1609C131.357 47.1609 131.524 47.2448 131.608 47.3288C131.691 47.4127 131.775 47.5805 131.775 47.7483V48.8392C131.775 50.3497 131.691 52.0281 131.524 53.7903C131.44 55.5525 131.273 56.5595 131.106 56.8113C130.772 56.8952 130.521 56.8952 130.437 56.8952C130.103 56.6434 130.019 56.6434 129.935 56.5595Z" fill="white"/>
<path d="M135.12 56.3916V55.8042C135.12 55.6363 135.12 55.4685 135.12 55.2167V54.7132C135.12 54.6293 134.952 53.5384 134.869 51.4405C134.701 49.3426 134.618 48.0839 134.618 47.4965C133.865 47.4965 133.447 47.4125 133.28 47.3286C133.113 47.2447 133.113 47.1608 133.113 47.0769C133.113 46.993 133.196 46.909 133.28 46.8251C133.447 46.7412 133.531 46.7412 133.698 46.7412C134.033 46.7412 134.451 46.7412 134.952 46.8251C135.454 46.909 135.872 46.909 136.206 46.909H136.374H136.541C136.959 46.909 137.126 46.993 137.126 47.2447C137.126 47.3286 137.043 47.4965 136.959 47.4965C136.875 47.4965 136.708 47.5804 136.541 47.5804C136.457 47.5804 136.29 47.5804 136.039 47.4965L135.705 47.4125V47.4965V47.5804C135.705 48.4195 135.788 49.8461 136.039 51.7762C136.206 53.6223 136.374 54.965 136.374 55.972C136.374 56.0559 136.29 56.2237 136.206 56.3076C136.039 56.3916 135.956 56.4755 135.788 56.4755L135.12 56.3916Z" fill="white"/>
<path d="M139.969 56.7271C139.718 56.6432 139.551 56.4753 139.384 56.3075C139.05 55.8879 138.882 55.3844 138.799 54.8809C138.715 54.4614 138.631 53.8739 138.631 53.2865C138.631 52.1956 138.548 50.9369 138.548 49.3425V48.1676C138.548 48.0837 138.548 47.9998 138.548 47.832C138.548 47.4963 138.548 47.2446 138.548 47.1607C138.631 46.9928 138.799 46.825 138.966 46.825C139.133 46.825 139.217 46.9089 139.384 47.0767C139.468 47.2446 139.551 47.4124 139.551 47.6642V51.6921C139.551 52.1117 139.635 52.6152 139.718 53.2865C139.802 54.1257 139.886 54.6292 139.886 54.8809C139.886 55.6362 140.304 55.9718 141.056 55.9718C141.976 55.9718 142.394 53.2865 142.394 47.9998V47.1607V46.9928V46.9089C142.394 46.825 142.394 46.7411 142.478 46.6572C142.561 46.5732 142.645 46.5732 142.896 46.5732C143.063 46.5732 143.147 46.5732 143.314 46.6572C143.397 46.7411 143.481 46.825 143.481 46.9089C143.481 46.9928 143.481 47.0767 143.481 47.2446C143.481 47.4124 143.481 47.6642 143.397 47.9998C143.314 48.2516 143.314 48.5033 143.314 48.7551C143.314 49.0068 143.314 49.1746 143.314 49.3425V49.9299V50.0138C143.314 50.0138 143.314 50.0977 143.314 50.1816C143.314 54.5453 142.478 56.7271 140.889 56.7271C140.471 56.8949 140.22 56.811 139.969 56.7271Z" fill="white"/>
<path d="M147.913 56.1398C147.662 55.6363 147.495 55.1328 147.327 54.5454L147.16 54.0419C146.826 52.6153 146.575 51.8601 146.491 51.6083H146.324C146.324 51.8601 146.324 52.1958 146.324 52.3636V53.2028C146.324 54.5454 146.408 55.5524 146.658 56.3076L146.491 56.7272H145.99L145.739 56.4755V55.4685C145.739 54.5454 145.655 53.2028 145.572 51.4405C145.488 49.5104 145.404 48.1678 145.404 47.4125C145.404 46.909 145.572 46.7412 145.99 46.7412C146.659 46.7412 147.16 46.909 147.662 47.1608C148.08 47.4125 148.331 47.8321 148.331 48.3356V49.3426C148.331 49.5104 148.331 49.6783 148.247 49.8461C148.164 50.0139 148.08 50.1818 148.08 50.3496L147.745 50.8531L147.411 51.2727L147.495 51.6083L147.745 52.6993C147.913 53.4545 148.08 54.0419 148.247 54.5454C148.414 55.0489 148.582 55.4685 148.832 55.8042L148.916 55.972C149 56.1398 149.083 56.3077 149.083 56.4755C149.083 56.5594 149.083 56.6433 149 56.7272C148.916 56.8111 148.832 56.8111 148.665 56.8111C148.414 56.8951 148.164 56.6433 147.913 56.1398ZM147.077 50.0139C147.244 49.5104 147.327 49.0909 147.327 48.6713C147.327 48.3356 147.244 48.0839 147.16 47.7482C147.077 47.5804 146.993 47.4965 146.826 47.4125C146.659 47.3286 146.491 47.2447 146.324 47.2447V47.3286V47.4965V49.2587C146.324 49.7622 146.324 50.3496 146.324 50.937C146.659 50.8531 146.909 50.5174 147.077 50.0139Z" fill="white"/>
<path d="M151.341 56.7273C151.174 56.6434 151.174 56.5595 151.09 56.3916V55.972V55.6364C151.09 55.5525 151.09 55.4686 151.09 55.3007C151.09 55.1329 151.09 54.7972 151.006 54.3776V53.4546C151.006 52.9511 151.006 52.2797 151.09 51.2727C151.174 50.4336 151.174 49.6783 151.174 49.0909C151.174 48.9231 151.174 48.7553 151.09 48.5035C151.09 48.2518 151.006 48 151.006 47.9161C151.006 47.2448 151.257 46.8252 151.759 46.8252C152.177 46.8252 152.595 46.9091 153.18 46.993C153.682 47.1609 154.016 47.2448 154.016 47.4126C154.016 47.4965 153.933 47.5804 153.849 47.6644C153.766 47.7483 153.598 47.8322 153.431 47.8322C152.929 47.6644 152.428 47.5804 152.01 47.4965C152.01 47.6644 152.01 47.8322 152.01 48.1679C152.01 48.5874 152.01 48.9231 152.01 49.2588C152.01 49.7623 151.926 50.0979 151.926 50.3497L152.01 50.6014H152.344C152.428 50.6014 152.595 50.6014 152.679 50.6014C153.264 50.6014 153.598 50.7693 153.598 51.021C153.598 51.1049 153.515 51.1888 153.431 51.2727C153.348 51.3567 153.18 51.3567 153.013 51.3567C152.762 51.3567 152.595 51.3567 152.511 51.3567H152.01C152.01 51.6084 152.01 52.028 152.01 52.4476C152.01 52.9511 152.01 53.3706 152.01 53.7902C152.01 54.3776 151.926 54.8811 151.926 55.1329C151.926 55.7203 151.926 55.972 151.926 55.972H152.511C152.679 55.972 153.013 55.972 153.264 55.972C153.766 55.972 153.933 56.056 153.933 56.3077C153.933 56.4755 153.849 56.5595 153.682 56.6434C153.515 56.7273 153.348 56.7273 153.097 56.7273H151.508C151.592 56.8112 151.424 56.8112 151.341 56.7273Z" fill="white"/>
<path d="M155.939 56.6432C155.772 56.5593 155.688 56.3915 155.688 56.2237L155.856 55.9719C155.939 55.9719 156.023 55.9719 156.19 56.0558C156.357 56.0558 156.525 56.1397 156.608 56.1397C156.859 56.1397 157.026 56.0558 157.194 55.888C157.361 55.7202 157.528 55.5523 157.612 55.3006C157.779 54.7971 157.862 54.3775 157.862 54.0418C157.862 53.3705 157.612 52.6992 157.11 51.9439L156.943 51.6922C156.692 51.3565 156.525 51.1048 156.357 50.853C156.19 50.6013 156.023 50.3495 155.939 50.0139C155.772 49.5943 155.688 49.2586 155.688 48.839C155.688 48.4195 155.772 47.916 156.023 47.4964C156.107 47.2446 156.357 47.0768 156.525 46.909C156.775 46.7411 157.026 46.6572 157.277 46.6572C157.528 46.6572 157.695 46.7411 157.862 46.8251C158.03 46.909 158.113 47.0768 158.113 47.2446C158.113 47.3286 158.03 47.4125 157.946 47.4125C157.862 47.4964 157.779 47.4964 157.612 47.4964C157.444 47.4964 157.361 47.4964 157.194 47.4125C156.943 47.4125 156.692 47.5803 156.525 47.9999C156.357 48.3356 156.357 48.6712 156.357 48.839C156.357 49.0908 156.441 49.4265 156.525 49.6782C156.608 49.93 156.775 50.2656 156.943 50.4335L157.361 51.0209L158.03 52.0279C158.197 52.2796 158.364 52.6153 158.448 52.9509C158.531 53.2866 158.615 53.7062 158.615 54.0418C158.615 54.6293 158.448 55.2167 158.113 55.8041C157.946 56.0558 157.695 56.3076 157.361 56.4754C157.026 56.6432 156.692 56.7272 156.357 56.7272V56.8111C156.274 56.8111 156.107 56.7272 155.939 56.6432Z" fill="white"/>
<path d="M54.9341 42.4618L49.8337 36.5038L57.3589 34.238L50.7535 29.9583C49.5829 29.5387 48.3287 29.2031 47.0745 29.1191C45.9039 40.6156 28.0942 56.7275 14.2143 40.28C13.2109 40.0282 12.2912 39.6926 11.3714 39.273L5.18404 36.5877L0 42.4618C3.0937 42.0422 5.5185 42.21 7.85968 42.5457C7.10716 45.1471 6.27102 47.5807 4.68236 49.6786C7.27438 49.6786 9.78279 48.7555 12.2076 47.4968C11.4551 49.5947 11.2878 52.3639 11.1206 55.217C13.0437 53.3709 15.3013 52.1121 17.7261 51.0212C17.8933 54.0422 18.1442 56.8114 18.8967 58.7415C20.1509 56.4758 21.9068 54.4618 24.0807 52.8674C25.6694 55.1331 26.7564 57.5667 27.4253 59.9163C29.7664 57.0632 30.1009 55.1331 30.7698 52.8674C32.8601 54.3779 34.5324 56.3919 35.9538 58.7415C36.79 56.0562 37.0408 53.5387 37.1244 51.0212C38.7967 52.7835 41.2215 54.0422 43.7299 55.217C42.9774 52.6996 41.974 50.0982 42.6429 47.4968C45.5694 47.8324 47.9942 48.6716 50.1682 49.6786C49.4156 47.0772 48.5795 44.5597 46.9908 42.5457C50.0845 41.6226 52.4257 42.21 54.9341 42.4618Z" fill="white"/>
<path d="M35.7864 33.2305C30.8532 37.8459 22.1574 41.79 14.7158 40.3634C28.0104 54.0417 44.0642 40.1116 46.2381 29.2025C42.3919 29.1186 38.3785 30.6291 35.7864 33.2305Z" fill="white"/>
<path d="M10.5352 23.0771C22.5756 5.45468 31.7731 7.38475 43.2281 19.9722L47.0743 17.5386L50.2517 10.4057C47.9105 11.2449 45.6529 12.3358 42.7264 12.5875C43.479 10.5736 43.7298 7.30084 43.8134 4.86727C42.0575 6.37776 39.9672 7.97217 37.2079 9.06307C37.1243 6.54559 36.8735 3.94419 36.0373 1.34279C34.6159 3.27286 32.2747 6.62951 30.8533 7.21692C28.9302 5.45468 28.6793 2.51762 27.5088 0.167969C26.4218 2.51762 24.8331 4.44769 24.1642 7.21692C21.1541 5.45468 20.1508 2.9372 18.9802 1.34279C18.5621 3.94419 17.9768 5.70643 17.8096 9.06307C16.639 7.21692 13.3781 6.29384 11.2041 4.86727C11.9566 7.46867 11.873 9.14699 12.2911 12.5875C10.4516 11.161 7.85956 11.4127 4.76586 10.4057C7.77595 14.4337 6.93981 15.1889 7.94317 17.5386C6.52174 16.8673 4.93308 16.6994 0.0834961 17.6225C2.09022 19.9722 6.18729 25.6785 9.19738 29.7064C8.77931 27.9442 8.61208 25.8463 10.5352 23.0771Z" fill="white"/>
<path d="M12.4585 33.9864C15.1342 36.5039 18.4787 36.9235 22.6594 35.0773C23.2447 33.9025 23.6628 33.1472 24.2481 32.0563C24.4989 31.5528 25.0006 30.1262 25.1678 29.6228C25.1678 29.6228 25.1678 29.5388 25.2514 29.4549C25.6695 27.1053 23.83 26.9374 21.7397 25.8465C20.7363 25.343 19.7329 24.8395 18.7296 24.1682C17.3918 23.1612 17.1409 21.5668 16.6392 19.9724C17.559 20.4759 17.6426 20.8955 19.3149 20.7276C21.0708 20.6437 23.3283 20.1402 25.0842 20.8116C26.2548 21.3151 26.3384 21.399 27.2582 22.2381C27.5926 21.3151 29.1813 20.1402 30.101 19.7207C31.4388 19.0493 32.9439 18.9654 34.3653 18.8815C35.8704 18.8815 35.7031 18.7137 36.7901 17.7906C37.459 19.2172 35.5359 21.3151 34.7834 22.0703L33.6964 23.1612C33.3619 23.4969 31.0208 25.2591 30.5191 25.5948C30.2682 25.7626 29.8502 26.0144 29.683 26.1822C29.0977 26.6857 28.596 27.1892 28.1779 27.8605C27.9271 28.2801 28.0107 28.1123 27.8435 28.5318C27.8435 28.5318 27.7598 28.6158 27.7598 28.6997C27.2582 29.9584 27.2582 31.0493 27.3418 32.2242C29.4321 30.7976 31.6897 29.0353 34.0309 27.0214C37.2082 24.1682 39.4657 22.2381 40.8872 21.3151L42.7267 20.1402C31.8569 8.4759 22.9103 7.21716 11.2043 24.2521C9.44846 26.7696 9.44846 28.7836 9.6993 30.4619C11.0371 32.3081 12.0405 33.6507 12.4585 33.9864Z" fill="white"/>
</g>
<defs>
<clipPath id="clip0_3437_1705">
<rect width="167.812" height="60" fill="white"/>
</clipPath>
</defs>
</svg>
