<svg width="40" height="40" viewBox="0 0 40 40" fill="none" xmlns="http://www.w3.org/2000/svg">
<rect width="40" height="40" rx="20" fill="#A8CF45"/>
<path d="M23.6328 25.5H16.3818V24.2036L19.1577 21.3911C19.6948 20.8442 20.1367 20.373 20.4834 19.9775C20.8301 19.5771 21.0864 19.1987 21.2524 18.8423C21.4233 18.4858 21.5088 18.0977 21.5088 17.6777C21.5088 17.1602 21.3599 16.7695 21.062 16.5059C20.7642 16.2373 20.3711 16.103 19.8828 16.103C19.4189 16.103 18.9893 16.1958 18.5938 16.3813C18.2031 16.562 17.7979 16.8208 17.3779 17.1577L16.4331 16.0225C16.731 15.7686 17.0483 15.5366 17.3853 15.3267C17.7271 15.1167 18.1079 14.9507 18.5278 14.8286C18.9478 14.7017 19.4263 14.6382 19.9634 14.6382C20.6421 14.6382 21.228 14.7603 21.7212 15.0044C22.2144 15.2437 22.5928 15.5781 22.8564 16.0078C23.125 16.4375 23.2593 16.938 23.2593 17.5093C23.2593 18.0854 23.1445 18.6177 22.915 19.106C22.6855 19.5942 22.3584 20.0776 21.9336 20.5562C21.5088 21.0298 21.0034 21.5449 20.4175 22.1016L18.5645 23.9106V23.9912H23.6328V25.5Z" fill="white"/>
</svg>
