<svg width="41" height="40" viewBox="0 0 41 40" fill="none" xmlns="http://www.w3.org/2000/svg">
<rect x="1.15039" y="0.25" width="39.475" height="39.5" rx="19.7375" stroke="white" stroke-width="0.5"/>
<path d="M19.0058 29.96H17.8742C17.8395 29.9445 17.8032 29.9329 17.7659 29.9251C16.8205 29.8283 15.9081 29.5243 15.0934 29.0346C12.7157 27.6328 11.4543 24.7555 12.033 22.0743C12.6954 19.0037 15.3749 16.8949 18.3282 16.864C18.7974 16.8589 19.039 17.0839 19.0394 17.5581C19.0394 18.5213 19.0394 19.4846 19.0394 20.4479C19.0394 20.9393 18.8514 21.1404 18.3583 21.1779C17.138 21.2714 16.2742 22.1474 16.2219 23.3447C16.1597 24.7567 17.4907 25.8906 18.8674 25.5999C19.9399 25.3729 20.6699 24.4895 20.6793 23.3916C20.6864 22.5911 20.6793 21.7906 20.6793 20.9901C20.6793 17.5341 20.6793 14.078 20.6793 10.622C20.6793 10.1838 20.903 9.95996 21.3354 9.95996C22.3429 9.95996 23.3505 9.95996 24.3583 9.95996C24.7278 9.95996 24.9518 10.1693 24.9839 10.5371C25.0042 10.7636 25.0156 10.9913 25.0492 11.2159C25.3018 12.8983 26.8924 14.3048 28.5948 14.3334C28.9636 14.3396 29.2345 14.4507 29.3804 14.8029V18.2009C29.2369 18.5667 28.9643 18.6864 28.5823 18.6704C27.3792 18.6215 26.2363 18.3504 25.1567 17.8096C25.1078 17.7854 25.0566 17.767 24.9851 17.7369V17.9943C24.9851 19.7448 24.9905 21.4952 24.9812 23.2453C24.9788 23.6534 24.9667 24.0669 24.8897 24.4676C24.3669 27.1637 22.7821 28.9188 20.1585 29.7217C19.7886 29.8398 19.3921 29.8833 19.0058 29.96Z" fill="white"/>
</svg>
