<svg width="41" height="40" viewBox="0 0 41 40" fill="none" xmlns="http://www.w3.org/2000/svg">
<rect x="1.2251" y="0.25" width="39.475" height="39.5" rx="19.7375" stroke="white" stroke-width="0.5"/>
<path d="M30.5445 15.1916C30.3142 14.335 29.639 13.6598 28.7829 13.4291C27.2188 13.001 20.9623 13.001 20.9623 13.001C20.9623 13.001 14.7061 13.001 13.142 13.4129C12.3023 13.6433 11.6107 14.3351 11.3804 15.1916C10.9688 16.7562 10.9688 20.001 10.9688 20.001C10.9688 20.001 10.9688 23.2621 11.3804 24.8103C11.6109 25.6668 12.2858 26.3421 13.1421 26.5727C14.7225 27.001 20.9625 27.001 20.9625 27.001C20.9625 27.001 27.2188 27.001 28.7829 26.5891C29.6392 26.3585 30.3142 25.6833 30.5447 24.8268C30.9562 23.2621 30.9562 20.0175 30.9562 20.0175C30.9562 20.0175 30.9727 16.7562 30.5445 15.1916ZM18.9704 22.9986V17.0034L24.173 20.001L18.9704 22.9986Z" fill="white"/>
</svg>
